<svg width="120" height="120" viewBox="0 0 120 120" fill="none" xmlns="http://www.w3.org/2000/svg">
<path fill-rule="evenodd" clip-rule="evenodd" d="M42.1715 98.5252C47.5909 100.863 53.3801 102.031 59.5392 102.031C65.6983 102.031 71.4864 100.862 76.9033 98.5237C82.3204 96.1852 87.0325 93.0114 91.0396 89.0025C95.0467 84.9937 98.219 80.2795 100.556 74.86C102.894 69.4406 104.063 63.6514 104.063 57.4923C104.063 51.3332 102.893 45.5451 100.555 40.1282C98.2164 34.7111 95.0427 29.999 91.0338 25.9919C87.0249 21.9848 82.3108 18.8125 76.8913 16.475C71.4719 14.1375 65.6826 12.9688 59.5235 12.9688C53.3644 12.9688 47.5764 14.138 42.1594 16.4765C36.7423 18.8151 32.0302 21.9888 28.0231 25.9977C24.0161 30.0066 20.8438 34.7207 18.5063 40.1402C16.1688 45.5596 15 51.3489 15 57.508C15 63.6671 16.1693 69.4551 18.5078 74.8721C20.8463 80.2891 24.02 85.0012 28.029 89.0084C32.0378 93.0154 36.752 96.1877 42.1715 98.5252ZM86.1331 84.1018C78.8674 91.3675 70.0002 95.0003 59.5314 95.0003C49.0626 95.0003 40.1953 91.3675 32.9297 84.1018C25.664 76.8362 22.0312 67.9689 22.0312 57.5001C22.0312 47.0313 25.664 38.1641 32.9297 30.8984C40.1953 23.6328 49.0626 19.9999 59.5314 19.9999C70.0002 19.9999 78.8674 23.6328 86.1331 30.8984C93.3987 38.1641 97.0316 47.0313 97.0316 57.5001C97.0316 67.9689 93.3987 76.8362 86.1331 84.1018ZM47.8903 55.4565L56.5994 64.6514L75.8776 44.2976C76.4206 43.7242 77.0791 43.4375 77.8529 43.4375C78.6266 43.4375 79.2851 43.7242 79.8282 44.2976C80.3713 44.871 80.6369 45.5725 80.6248 46.4022C80.6128 47.2319 80.3473 47.9207 79.8282 48.4687L58.9713 70.4894C58.2936 71.2049 57.503 71.5626 56.5994 71.5626C55.6958 71.5626 54.9052 71.2049 54.2275 70.4894L43.9396 59.6275C43.3965 59.0541 43.125 58.3589 43.125 57.542C43.125 56.725 43.3965 56.0299 43.9396 55.4565C44.4827 54.883 45.1472 54.6026 45.933 54.6154C46.7189 54.628 47.3713 54.9084 47.8903 55.4565Z" fill="#FF9A00"/>
</svg>
