<svg width="24" height="24" viewBox="0 0 24 24" fill="none" xmlns="http://www.w3.org/2000/svg">
<path d="M21 12C21 16.9706 16.9706 21 12 21C7.02944 21 3 16.9706 3 12C3 7.02944 7.02944 3 12 3C16.9706 3 21 7.02944 21 12Z" fill="#EFF0F3"/>
<path d="M21 12C21 16.9706 16.9706 21 12 21C7.02944 21 3 16.9706 3 12C3 7.02944 7.02944 3 12 3C16.9706 3 21 7.02944 21 12Z" fill="black" fill-opacity="0.1"/>
<path fill-rule="evenodd" clip-rule="evenodd" d="M8.95307 11.4038L10.6949 13.2428L14.5505 9.17202C14.6591 9.05734 14.7908 9 14.9456 9C15.1003 9 15.232 9.05734 15.3406 9.17202C15.4493 9.2867 15.5024 9.42701 15.5 9.59294C15.4976 9.75888 15.4445 9.89665 15.3406 10.0062L11.1693 14.4104C11.0337 14.5535 10.8756 14.625 10.6949 14.625C10.5142 14.625 10.356 14.5535 10.2205 14.4104L8.16293 12.238C8.05431 12.1233 8 11.9843 8 11.8209C8 11.6575 8.05431 11.5185 8.16293 11.4038C8.27155 11.2891 8.40444 11.233 8.56161 11.2356C8.71877 11.2381 8.84926 11.2942 8.95307 11.4038Z" fill="white"/>
</svg>
