<svg width="24" height="24" viewBox="0 0 24 24" fill="none" xmlns="http://www.w3.org/2000/svg">
<g clip-path="url(#clip0_354_39137)">
<path fill-rule="evenodd" clip-rule="evenodd" d="M3.86228 3.99156C3.96254 3.90046 4.04343 3.82696 4.09439 3.76988C4.67557 3.11888 5.43125 3.05194 6.03821 3.1852C6.61423 3.31168 7.12279 3.62398 7.42867 3.87505C7.85548 4.20076 8.89983 5.05941 9.8224 6.01305C10.373 6.58215 10.6008 7.17875 10.5897 7.73459C10.5792 8.26014 10.3554 8.68382 10.1134 8.93756L9.18706 9.9752C9.21933 10.0241 9.25694 10.0782 9.30043 10.1376C9.46276 10.3594 9.6739 10.6106 9.90819 10.869C10.3763 11.3853 10.9071 11.898 11.2503 12.2096L10.3763 13.1721C10.0096 12.8391 9.44766 12.2965 8.94511 11.7422C8.69405 11.4653 8.45034 11.1773 8.25139 10.9054C8.06276 10.6477 7.87492 10.3524 7.78585 10.0691L7.67506 9.71681L9.16165 8.05162L9.1719 8.04113C9.20728 8.00493 9.28647 7.88463 9.28999 7.7086C9.29308 7.55436 9.23926 7.27996 8.88807 6.91694C8.0147 6.01416 7.01335 5.1925 6.63122 4.9018L6.62038 4.89355L6.60989 4.88485C6.41499 4.72325 6.08491 4.52643 5.75941 4.45496C5.45789 4.38875 5.24057 4.43803 5.06416 4.63564C4.92487 4.79166 4.77153 4.93661 4.61706 5.08262C4.07948 5.59078 3.52828 6.1118 3.50854 7.15723C3.4827 8.52581 4.44637 10.9307 8.69938 15.1048L7.78879 16.0326C3.51405 11.8372 2.17182 9.08953 2.20877 7.13269C2.24025 5.46545 3.32714 4.47783 3.86228 3.99156Z" fill="white"/>
<path fill-rule="evenodd" clip-rule="evenodd" d="M3.86228 3.99156C3.96254 3.90046 4.04343 3.82696 4.09439 3.76988C4.67557 3.11888 5.43125 3.05194 6.03821 3.1852C6.61423 3.31168 7.12279 3.62398 7.42867 3.87505C7.85548 4.20076 8.89983 5.05941 9.8224 6.01305C10.373 6.58215 10.6008 7.17875 10.5897 7.73459C10.5792 8.26014 10.3554 8.68382 10.1134 8.93756L9.18706 9.9752C9.21933 10.0241 9.25694 10.0782 9.30043 10.1376C9.46276 10.3594 9.6739 10.6106 9.90819 10.869C10.3763 11.3853 10.9071 11.898 11.2503 12.2096L10.3763 13.1721C10.0096 12.8391 9.44766 12.2965 8.94511 11.7422C8.69405 11.4653 8.45034 11.1773 8.25139 10.9054C8.06276 10.6477 7.87492 10.3524 7.78585 10.0691L7.67506 9.71681L9.16165 8.05162L9.1719 8.04113C9.20728 8.00493 9.28647 7.88463 9.28999 7.7086C9.29308 7.55436 9.23926 7.27996 8.88807 6.91694C8.0147 6.01416 7.01335 5.1925 6.63122 4.9018L6.62038 4.89355L6.60989 4.88485C6.41499 4.72325 6.08491 4.52643 5.75941 4.45496C5.45789 4.38875 5.24057 4.43803 5.06416 4.63564C4.92487 4.79166 4.77153 4.93661 4.61706 5.08262C4.07948 5.59078 3.52828 6.1118 3.50854 7.15723C3.4827 8.52581 4.44637 10.9307 8.69938 15.1048L7.78879 16.0326C3.51405 11.8372 2.17182 9.08953 2.20877 7.13269C2.24025 5.46545 3.32714 4.47783 3.86228 3.99156Z" fill="#1C1C1C"/>
<path fill-rule="evenodd" clip-rule="evenodd" d="M20.2562 18.579C20.3275 18.4905 20.3873 18.4162 20.4364 18.3612C21.0175 17.7102 20.9987 16.9518 20.7977 16.3638C20.607 15.8058 20.2392 15.3358 19.9552 15.0602C19.5834 14.6729 18.6122 13.7322 17.5605 12.9233C16.9328 12.4406 16.3143 12.2815 15.7633 12.3554C15.2423 12.4252 14.8466 12.6954 14.6218 12.9645L13.6955 14.0022C13.6433 13.9756 13.5852 13.9444 13.5212 13.9079C13.2825 13.7716 13.0092 13.5902 12.7259 13.3866C12.16 12.9798 11.5907 12.5104 11.2423 12.2046L10.3847 13.1816C10.757 13.5084 11.3596 14.0055 11.9671 14.4422C12.2706 14.6603 12.5843 14.87 12.8769 15.0369C13.1543 15.1952 13.4689 15.3485 13.7604 15.405L14.123 15.4753L15.6096 13.8101L15.6189 13.7987C15.6508 13.7595 15.7614 13.6672 15.9359 13.6438C16.0888 13.6234 16.3676 13.6458 16.7679 13.9538C17.7636 14.7196 18.6931 15.6217 19.0251 15.9685L19.0345 15.9784L19.0444 15.9878C19.2269 16.1632 19.4598 16.4689 19.5676 16.7843C19.6674 17.0764 19.643 17.2979 19.4666 17.4955C19.383 17.5891 19.296 17.6942 19.2036 17.8059C18.6795 18.4392 17.9791 19.2857 16.7066 19.477C15.2315 19.6987 12.74 19.0312 8.69713 15.1047L7.79142 16.0373C11.9097 20.0369 14.7983 21.0784 16.8998 20.7625C18.7173 20.4893 19.7619 19.1925 20.2562 18.579Z" fill="white"/>
<path fill-rule="evenodd" clip-rule="evenodd" d="M20.2562 18.579C20.3275 18.4905 20.3873 18.4162 20.4364 18.3612C21.0175 17.7102 20.9987 16.9518 20.7977 16.3638C20.607 15.8058 20.2392 15.3358 19.9552 15.0602C19.5834 14.6729 18.6122 13.7322 17.5605 12.9233C16.9328 12.4406 16.3143 12.2815 15.7633 12.3554C15.2423 12.4252 14.8466 12.6954 14.6218 12.9645L13.6955 14.0022C13.6433 13.9756 13.5852 13.9444 13.5212 13.9079C13.2825 13.7716 13.0092 13.5902 12.7259 13.3866C12.16 12.9798 11.5907 12.5104 11.2423 12.2046L10.3847 13.1816C10.757 13.5084 11.3596 14.0055 11.9671 14.4422C12.2706 14.6603 12.5843 14.87 12.8769 15.0369C13.1543 15.1952 13.4689 15.3485 13.7604 15.405L14.123 15.4753L15.6096 13.8101L15.6189 13.7987C15.6508 13.7595 15.7614 13.6672 15.9359 13.6438C16.0888 13.6234 16.3676 13.6458 16.7679 13.9538C17.7636 14.7196 18.6931 15.6217 19.0251 15.9685L19.0345 15.9784L19.0444 15.9878C19.2269 16.1632 19.4598 16.4689 19.5676 16.7843C19.6674 17.0764 19.643 17.2979 19.4666 17.4955C19.383 17.5891 19.296 17.6942 19.2036 17.8059C18.6795 18.4392 17.9791 19.2857 16.7066 19.477C15.2315 19.6987 12.74 19.0312 8.69713 15.1047L7.79142 16.0373C11.9097 20.0369 14.7983 21.0784 16.8998 20.7625C18.7173 20.4893 19.7619 19.1925 20.2562 18.579Z" fill="#1C1C1C"/>
</g>
<defs>
<clipPath id="clip0_354_39137">
<rect width="24" height="24" fill="white"/>
</clipPath>
</defs>
</svg>
