<svg width="24" height="24" viewBox="0 0 24 24" fill="none" xmlns="http://www.w3.org/2000/svg">
<path d="M11.2194 15.7037L14.6881 12.235C14.8283 12.0947 14.9974 12.0231 15.1951 12.0201C15.3928 12.017 15.5649 12.0887 15.7112 12.235C15.8576 12.3814 15.9307 12.5519 15.9307 12.7466C15.9307 12.9413 15.8576 13.1118 15.7112 13.2582L11.8162 17.1531C11.6457 17.3237 11.4468 17.4089 11.2194 17.4089C10.992 17.4089 10.7931 17.3237 10.6226 17.1531L8.70862 15.2392C8.56833 15.0989 8.49667 14.9299 8.49366 14.7322C8.49062 14.5344 8.56228 14.3624 8.70862 14.2161C8.85495 14.0697 9.02548 13.9966 9.2202 13.9966C9.41491 13.9966 9.58543 14.0697 9.73176 14.2161L11.2194 15.7037ZM5.89671 21.0663C5.42019 21.0663 5.01684 20.9012 4.68667 20.571C4.35649 20.2408 4.19141 19.8375 4.19141 19.361V6.73455C4.19141 6.25803 4.35649 5.85468 4.68667 5.52451C5.01684 5.19433 5.42019 5.02924 5.89671 5.02924H7.20291V3.75932C7.20291 3.55252 7.27215 3.37988 7.41063 3.2414C7.5491 3.10293 7.72175 3.03369 7.92856 3.03369C8.13536 3.03369 8.308 3.10293 8.44649 3.2414C8.58496 3.37988 8.65419 3.55252 8.65419 3.75932V5.02924H15.8019V3.74119C15.8019 3.54042 15.8696 3.37232 16.0051 3.23687C16.1405 3.10142 16.3086 3.03369 16.5094 3.03369C16.7102 3.03369 16.8783 3.10142 17.0137 3.23687C17.1492 3.37232 17.2169 3.54042 17.2169 3.74119V5.02924H18.5231C18.9996 5.02924 19.403 5.19433 19.7332 5.52451C20.0633 5.85468 20.2284 6.25803 20.2284 6.73455V19.361C20.2284 19.8375 20.0633 20.2408 19.7332 20.571C19.403 20.9012 18.9996 21.0663 18.5231 21.0663H5.89671ZM5.89671 19.6512H18.5231C18.5957 19.6512 18.6622 19.621 18.7227 19.5605C18.7832 19.5001 18.8134 19.4335 18.8134 19.361V10.508H5.60642V19.361C5.60642 19.4335 5.63665 19.5001 5.69712 19.5605C5.75761 19.621 5.82414 19.6512 5.89671 19.6512ZM5.60642 9.09297H18.8134V6.73455C18.8134 6.66198 18.7832 6.59544 18.7227 6.53496C18.6622 6.47449 18.5957 6.44426 18.5231 6.44426H5.89671C5.82414 6.44426 5.75761 6.47449 5.69712 6.53496C5.63665 6.59544 5.60642 6.66198 5.60642 6.73455V9.09297Z" fill="white"/>
<path d="M11.2194 15.7037L14.6881 12.235C14.8283 12.0947 14.9974 12.0231 15.1951 12.0201C15.3928 12.017 15.5649 12.0887 15.7112 12.235C15.8576 12.3814 15.9307 12.5519 15.9307 12.7466C15.9307 12.9413 15.8576 13.1118 15.7112 13.2582L11.8162 17.1531C11.6457 17.3237 11.4468 17.4089 11.2194 17.4089C10.992 17.4089 10.7931 17.3237 10.6226 17.1531L8.70862 15.2392C8.56833 15.0989 8.49667 14.9299 8.49366 14.7322C8.49062 14.5344 8.56228 14.3624 8.70862 14.2161C8.85495 14.0697 9.02548 13.9966 9.2202 13.9966C9.41491 13.9966 9.58543 14.0697 9.73176 14.2161L11.2194 15.7037ZM5.89671 21.0663C5.42019 21.0663 5.01684 20.9012 4.68667 20.571C4.35649 20.2408 4.19141 19.8375 4.19141 19.361V6.73455C4.19141 6.25803 4.35649 5.85468 4.68667 5.52451C5.01684 5.19433 5.42019 5.02924 5.89671 5.02924H7.20291V3.75932C7.20291 3.55252 7.27215 3.37988 7.41063 3.2414C7.5491 3.10293 7.72175 3.03369 7.92856 3.03369C8.13536 3.03369 8.308 3.10293 8.44649 3.2414C8.58496 3.37988 8.65419 3.55252 8.65419 3.75932V5.02924H15.8019V3.74119C15.8019 3.54042 15.8696 3.37232 16.0051 3.23687C16.1405 3.10142 16.3086 3.03369 16.5094 3.03369C16.7102 3.03369 16.8783 3.10142 17.0137 3.23687C17.1492 3.37232 17.2169 3.54042 17.2169 3.74119V5.02924H18.5231C18.9996 5.02924 19.403 5.19433 19.7332 5.52451C20.0633 5.85468 20.2284 6.25803 20.2284 6.73455V19.361C20.2284 19.8375 20.0633 20.2408 19.7332 20.571C19.403 20.9012 18.9996 21.0663 18.5231 21.0663H5.89671ZM5.89671 19.6512H18.5231C18.5957 19.6512 18.6622 19.621 18.7227 19.5605C18.7832 19.5001 18.8134 19.4335 18.8134 19.361V10.508H5.60642V19.361C5.60642 19.4335 5.63665 19.5001 5.69712 19.5605C5.75761 19.621 5.82414 19.6512 5.89671 19.6512ZM5.60642 9.09297H18.8134V6.73455C18.8134 6.66198 18.7832 6.59544 18.7227 6.53496C18.6622 6.47449 18.5957 6.44426 18.5231 6.44426H5.89671C5.82414 6.44426 5.75761 6.47449 5.69712 6.53496C5.63665 6.59544 5.60642 6.66198 5.60642 6.73455V9.09297Z" fill="#1C1C1C"/>
</svg>
