<svg width="24" height="25" viewBox="0 0 24 25" fill="none" xmlns="http://www.w3.org/2000/svg">
<path d="M12.7088 12.1101V8.15143C12.7088 7.96121 12.6402 7.79747 12.5028 7.6602C12.3655 7.52295 12.2017 7.45433 12.0114 7.45433C11.8174 7.45433 11.6519 7.52295 11.5151 7.6602C11.3782 7.79747 11.3098 7.96121 11.3098 8.15143V12.3284C11.3098 12.4379 11.3303 12.5441 11.3713 12.6468C11.4124 12.7495 11.4757 12.8434 11.5612 12.9284L14.9608 16.3418C15.0941 16.4796 15.2563 16.5502 15.4473 16.5534C15.6383 16.5566 15.8063 16.4857 15.9511 16.3409C16.0928 16.1992 16.1636 16.0345 16.1636 15.8467C16.1636 15.6588 16.0932 15.4928 15.9522 15.3487L12.7088 12.1101ZM12.0015 21.6918C10.7157 21.6918 9.50677 21.4474 8.37487 20.9587C7.24297 20.4699 6.25837 19.8067 5.42107 18.9688C4.58377 18.131 3.92113 17.1472 3.43315 16.0174C2.94516 14.8877 2.70117 13.6806 2.70117 12.3961C2.70117 11.1102 2.94555 9.9013 3.4343 8.7694C3.92303 7.6375 4.58632 6.6529 5.42417 5.8156C6.26201 4.9783 7.2458 4.31566 8.37555 3.82768C9.5053 3.33969 10.7124 3.0957 11.9969 3.0957C13.2828 3.0957 14.4917 3.34008 15.6236 3.82883C16.7555 4.31756 17.7401 4.98085 18.5774 5.8187C19.4147 6.65654 20.0773 7.64033 20.5653 8.77008C21.0533 9.89983 21.2973 11.107 21.2973 12.3915C21.2973 13.6773 21.0529 14.8862 20.5641 16.0181C20.0754 17.15 19.4121 18.1346 18.5743 18.9719C17.7364 19.8092 16.7526 20.4718 15.6229 20.9598C14.4931 21.4478 13.286 21.6918 12.0015 21.6918ZM11.9992 20.2928C14.1838 20.2928 16.0465 19.5224 17.5872 17.9817C19.1279 16.441 19.8983 14.5784 19.8983 12.3938C19.8983 10.2091 19.1279 8.34648 17.5872 6.80578C16.0465 5.26506 14.1838 4.4947 11.9992 4.4947C9.8146 4.4947 7.95195 5.26506 6.41125 6.80578C4.87053 8.34648 4.10017 10.2091 4.10017 12.3938C4.10017 14.5784 4.87053 16.441 6.41125 17.9817C7.95195 19.5224 9.8146 20.2928 11.9992 20.2928Z" fill="white"/>
<path d="M12.7088 12.1101V8.15143C12.7088 7.96121 12.6402 7.79747 12.5028 7.6602C12.3655 7.52295 12.2017 7.45433 12.0114 7.45433C11.8174 7.45433 11.6519 7.52295 11.5151 7.6602C11.3782 7.79747 11.3098 7.96121 11.3098 8.15143V12.3284C11.3098 12.4379 11.3303 12.5441 11.3713 12.6468C11.4124 12.7495 11.4757 12.8434 11.5612 12.9284L14.9608 16.3418C15.0941 16.4796 15.2563 16.5502 15.4473 16.5534C15.6383 16.5566 15.8063 16.4857 15.9511 16.3409C16.0928 16.1992 16.1636 16.0345 16.1636 15.8467C16.1636 15.6588 16.0932 15.4928 15.9522 15.3487L12.7088 12.1101ZM12.0015 21.6918C10.7157 21.6918 9.50677 21.4474 8.37487 20.9587C7.24297 20.4699 6.25837 19.8067 5.42107 18.9688C4.58377 18.131 3.92113 17.1472 3.43315 16.0174C2.94516 14.8877 2.70117 13.6806 2.70117 12.3961C2.70117 11.1102 2.94555 9.9013 3.4343 8.7694C3.92303 7.6375 4.58632 6.6529 5.42417 5.8156C6.26201 4.9783 7.2458 4.31566 8.37555 3.82768C9.5053 3.33969 10.7124 3.0957 11.9969 3.0957C13.2828 3.0957 14.4917 3.34008 15.6236 3.82883C16.7555 4.31756 17.7401 4.98085 18.5774 5.8187C19.4147 6.65654 20.0773 7.64033 20.5653 8.77008C21.0533 9.89983 21.2973 11.107 21.2973 12.3915C21.2973 13.6773 21.0529 14.8862 20.5641 16.0181C20.0754 17.15 19.4121 18.1346 18.5743 18.9719C17.7364 19.8092 16.7526 20.4718 15.6229 20.9598C14.4931 21.4478 13.286 21.6918 12.0015 21.6918ZM11.9992 20.2928C14.1838 20.2928 16.0465 19.5224 17.5872 17.9817C19.1279 16.441 19.8983 14.5784 19.8983 12.3938C19.8983 10.2091 19.1279 8.34648 17.5872 6.80578C16.0465 5.26506 14.1838 4.4947 11.9992 4.4947C9.8146 4.4947 7.95195 5.26506 6.41125 6.80578C4.87053 8.34648 4.10017 10.2091 4.10017 12.3938C4.10017 14.5784 4.87053 16.441 6.41125 17.9817C7.95195 19.5224 9.8146 20.2928 11.9992 20.2928Z" fill="#1C1C1C"/>
</svg>
