<svg width="24" height="24" viewBox="0 0 24 24" fill="none" xmlns="http://www.w3.org/2000/svg">
<path d="M11.1921 13.0579V15.6866C11.1921 16.0169 11.3067 16.2966 11.5359 16.5258C11.765 16.7549 12.0448 16.8695 12.375 16.8695C12.7053 16.8695 12.985 16.7549 13.2142 16.5258C13.4433 16.2966 13.5579 16.0169 13.5579 15.6866V13.0579H16.1866C16.5169 13.0579 16.7966 12.9433 17.0258 12.7142C17.2549 12.485 17.3695 12.2053 17.3695 11.875C17.3695 11.5448 17.2549 11.265 17.0258 11.0359C16.7966 10.8067 16.5169 10.6921 16.1866 10.6921H13.5579V8.06342C13.5579 7.73315 13.4433 7.45343 13.2142 7.22427C12.985 6.99511 12.7053 6.88054 12.375 6.88054C12.0448 6.88054 11.765 6.99511 11.5359 7.22427C11.3067 7.45343 11.1921 7.73315 11.1921 8.06342V10.6921H8.56342C8.23315 10.6921 7.95343 10.8067 7.72426 11.0359C7.49511 11.265 7.38054 11.5448 7.38054 11.875C7.38054 12.2053 7.49511 12.485 7.72426 12.7142C7.95343 12.9433 8.23315 13.0579 8.56342 13.0579H11.1921ZM5.33825 20.8125C4.80712 20.8125 4.35754 20.6285 3.98953 20.2605C3.62151 19.8925 3.4375 19.4429 3.4375 18.9118V4.83826C3.4375 4.30712 3.62151 3.85754 3.98953 3.48953C4.35754 3.12151 4.80712 2.9375 5.33825 2.9375H19.4118C19.9429 2.9375 20.3925 3.12151 20.7605 3.48953C21.1285 3.85754 21.3125 4.30712 21.3125 4.83826V18.9118C21.3125 19.4429 21.1285 19.8925 20.7605 20.2605C20.3925 20.6285 19.9429 20.8125 19.4118 20.8125H5.33825ZM5.33825 19.2354H19.4118C19.4927 19.2354 19.5668 19.2017 19.6343 19.1343C19.7017 19.0668 19.7354 18.9927 19.7354 18.9118V4.83826C19.7354 4.75736 19.7017 4.68321 19.6343 4.61579C19.5668 4.54839 19.4927 4.51469 19.4118 4.51469H5.33825C5.25736 4.51469 5.1832 4.54839 5.11579 4.61579C5.04839 4.68321 5.01469 4.75736 5.01469 4.83826V18.9118C5.01469 18.9927 5.04839 19.0668 5.11579 19.1343C5.1832 19.2017 5.25736 19.2354 5.33825 19.2354Z" fill="white"/>
<path d="M11.1921 13.0579V15.6866C11.1921 16.0169 11.3067 16.2966 11.5359 16.5258C11.765 16.7549 12.0448 16.8695 12.375 16.8695C12.7053 16.8695 12.985 16.7549 13.2142 16.5258C13.4433 16.2966 13.5579 16.0169 13.5579 15.6866V13.0579H16.1866C16.5169 13.0579 16.7966 12.9433 17.0258 12.7142C17.2549 12.485 17.3695 12.2053 17.3695 11.875C17.3695 11.5448 17.2549 11.265 17.0258 11.0359C16.7966 10.8067 16.5169 10.6921 16.1866 10.6921H13.5579V8.06342C13.5579 7.73315 13.4433 7.45343 13.2142 7.22427C12.985 6.99511 12.7053 6.88054 12.375 6.88054C12.0448 6.88054 11.765 6.99511 11.5359 7.22427C11.3067 7.45343 11.1921 7.73315 11.1921 8.06342V10.6921H8.56342C8.23315 10.6921 7.95343 10.8067 7.72426 11.0359C7.49511 11.265 7.38054 11.5448 7.38054 11.875C7.38054 12.2053 7.49511 12.485 7.72426 12.7142C7.95343 12.9433 8.23315 13.0579 8.56342 13.0579H11.1921ZM5.33825 20.8125C4.80712 20.8125 4.35754 20.6285 3.98953 20.2605C3.62151 19.8925 3.4375 19.4429 3.4375 18.9118V4.83826C3.4375 4.30712 3.62151 3.85754 3.98953 3.48953C4.35754 3.12151 4.80712 2.9375 5.33825 2.9375H19.4118C19.9429 2.9375 20.3925 3.12151 20.7605 3.48953C21.1285 3.85754 21.3125 4.30712 21.3125 4.83826V18.9118C21.3125 19.4429 21.1285 19.8925 20.7605 20.2605C20.3925 20.6285 19.9429 20.8125 19.4118 20.8125H5.33825ZM5.33825 19.2354H19.4118C19.4927 19.2354 19.5668 19.2017 19.6343 19.1343C19.7017 19.0668 19.7354 18.9927 19.7354 18.9118V4.83826C19.7354 4.75736 19.7017 4.68321 19.6343 4.61579C19.5668 4.54839 19.4927 4.51469 19.4118 4.51469H5.33825C5.25736 4.51469 5.1832 4.54839 5.11579 4.61579C5.04839 4.68321 5.01469 4.75736 5.01469 4.83826V18.9118C5.01469 18.9927 5.04839 19.0668 5.11579 19.1343C5.1832 19.2017 5.25736 19.2354 5.33825 19.2354Z" fill="#1C1C1C"/>
</svg>
