<svg width="24" height="24" viewBox="0 0 24 24" fill="none" xmlns="http://www.w3.org/2000/svg">
<path d="M17.557 12.6424C17.7586 12.6424 17.9274 12.5744 18.0634 12.4384C18.1995 12.3024 18.2675 12.1335 18.2675 11.9319C18.2675 11.7303 18.1995 11.5615 18.0634 11.4254C17.9274 11.2894 17.7586 11.2214 17.557 11.2214H14.6783C14.4767 11.2214 14.3079 11.2894 14.1719 11.4254C14.0358 11.5615 13.9678 11.7303 13.9678 11.9319C13.9678 12.1335 14.0358 12.3024 14.1719 12.4384C14.3079 12.5744 14.4767 12.6424 14.6783 12.6424H17.557ZM17.557 9.90959C17.7586 9.90959 17.9274 9.84157 18.0634 9.70554C18.1995 9.5695 18.2675 9.40066 18.2675 9.19904C18.2675 8.99744 18.1995 8.82861 18.0634 8.69257C17.9274 8.55654 17.7586 8.48853 17.557 8.48853H14.6783C14.4767 8.48853 14.3079 8.55654 14.1719 8.69257C14.0358 8.82861 13.9678 8.99744 13.9678 9.19904C13.9678 9.40066 14.0358 9.5695 14.1719 9.70554C14.3079 9.84157 14.4767 9.90959 14.6783 9.90959H17.557ZM9.19446 13.0433C8.65031 13.0433 8.17357 13.087 7.76425 13.1745C7.35493 13.2619 6.99178 13.401 6.67478 13.5917C6.3857 13.7605 6.16647 13.9494 6.01708 14.1583C5.86768 14.3672 5.79297 14.5913 5.79297 14.8305C5.79297 14.9957 5.85644 15.1339 5.98338 15.245C6.11029 15.3561 6.26728 15.4117 6.45432 15.4117H11.9346C12.1216 15.4117 12.2786 15.3522 12.4055 15.2332C12.5324 15.1141 12.5959 14.9672 12.5959 14.7923C12.5959 14.5785 12.5227 14.3711 12.3764 14.1701C12.23 13.9691 12.0093 13.7763 11.7141 13.5917C11.3971 13.401 11.034 13.2619 10.6246 13.1745C10.2153 13.087 9.73859 13.0433 9.19446 13.0433ZM9.19446 11.8044C9.65478 11.8044 10.0462 11.6431 10.3686 11.3207C10.6911 10.9982 10.8524 10.6068 10.8524 10.1464C10.8524 9.68611 10.6911 9.29472 10.3686 8.97224C10.0462 8.64976 9.65478 8.48853 9.19446 8.48853C8.73412 8.48853 8.34271 8.64976 8.02024 8.97224C7.69776 9.29472 7.53652 9.68611 7.53652 10.1464C7.53652 10.6068 7.69776 10.9982 8.02024 11.3207C8.34271 11.6431 8.73412 11.8044 9.19446 11.8044ZM4.7126 19.0555C4.23404 19.0555 3.82897 18.8897 3.49738 18.5581C3.16579 18.2265 3 17.8215 3 17.3429V6.55732C3 6.07876 3.16579 5.67369 3.49738 5.34211C3.82897 5.01052 4.23404 4.84473 4.7126 4.84473H19.2877C19.7663 4.84473 20.1714 5.01052 20.503 5.34211C20.8346 5.67369 21.0003 6.07876 21.0003 6.55732V17.3429C21.0003 17.8215 20.8346 18.2265 20.503 18.5581C20.1714 18.8897 19.7663 19.0555 19.2877 19.0555H4.7126ZM4.7126 17.6345H19.2877C19.3606 17.6345 19.4274 17.6041 19.4882 17.5434C19.5489 17.4826 19.5793 17.4158 19.5793 17.3429V6.55732C19.5793 6.48444 19.5489 6.41762 19.4882 6.35688C19.4274 6.29615 19.3606 6.26579 19.2877 6.26579H4.7126C4.63971 6.26579 4.57289 6.29615 4.51215 6.35688C4.45142 6.41762 4.42106 6.48444 4.42106 6.55732V17.3429C4.42106 17.4158 4.45142 17.4826 4.51215 17.5434C4.57289 17.6041 4.63971 17.6345 4.7126 17.6345Z" fill="white"/>
<path d="M17.557 12.6424C17.7586 12.6424 17.9274 12.5744 18.0634 12.4384C18.1995 12.3024 18.2675 12.1335 18.2675 11.9319C18.2675 11.7303 18.1995 11.5615 18.0634 11.4254C17.9274 11.2894 17.7586 11.2214 17.557 11.2214H14.6783C14.4767 11.2214 14.3079 11.2894 14.1719 11.4254C14.0358 11.5615 13.9678 11.7303 13.9678 11.9319C13.9678 12.1335 14.0358 12.3024 14.1719 12.4384C14.3079 12.5744 14.4767 12.6424 14.6783 12.6424H17.557ZM17.557 9.90959C17.7586 9.90959 17.9274 9.84157 18.0634 9.70554C18.1995 9.5695 18.2675 9.40066 18.2675 9.19904C18.2675 8.99744 18.1995 8.82861 18.0634 8.69257C17.9274 8.55654 17.7586 8.48853 17.557 8.48853H14.6783C14.4767 8.48853 14.3079 8.55654 14.1719 8.69257C14.0358 8.82861 13.9678 8.99744 13.9678 9.19904C13.9678 9.40066 14.0358 9.5695 14.1719 9.70554C14.3079 9.84157 14.4767 9.90959 14.6783 9.90959H17.557ZM9.19446 13.0433C8.65031 13.0433 8.17357 13.087 7.76425 13.1745C7.35493 13.2619 6.99178 13.401 6.67478 13.5917C6.3857 13.7605 6.16647 13.9494 6.01708 14.1583C5.86768 14.3672 5.79297 14.5913 5.79297 14.8305C5.79297 14.9957 5.85644 15.1339 5.98338 15.245C6.11029 15.3561 6.26728 15.4117 6.45432 15.4117H11.9346C12.1216 15.4117 12.2786 15.3522 12.4055 15.2332C12.5324 15.1141 12.5959 14.9672 12.5959 14.7923C12.5959 14.5785 12.5227 14.3711 12.3764 14.1701C12.23 13.9691 12.0093 13.7763 11.7141 13.5917C11.3971 13.401 11.034 13.2619 10.6246 13.1745C10.2153 13.087 9.73859 13.0433 9.19446 13.0433ZM9.19446 11.8044C9.65478 11.8044 10.0462 11.6431 10.3686 11.3207C10.6911 10.9982 10.8524 10.6068 10.8524 10.1464C10.8524 9.68611 10.6911 9.29472 10.3686 8.97224C10.0462 8.64976 9.65478 8.48853 9.19446 8.48853C8.73412 8.48853 8.34271 8.64976 8.02024 8.97224C7.69776 9.29472 7.53652 9.68611 7.53652 10.1464C7.53652 10.6068 7.69776 10.9982 8.02024 11.3207C8.34271 11.6431 8.73412 11.8044 9.19446 11.8044ZM4.7126 19.0555C4.23404 19.0555 3.82897 18.8897 3.49738 18.5581C3.16579 18.2265 3 17.8215 3 17.3429V6.55732C3 6.07876 3.16579 5.67369 3.49738 5.34211C3.82897 5.01052 4.23404 4.84473 4.7126 4.84473H19.2877C19.7663 4.84473 20.1714 5.01052 20.503 5.34211C20.8346 5.67369 21.0003 6.07876 21.0003 6.55732V17.3429C21.0003 17.8215 20.8346 18.2265 20.503 18.5581C20.1714 18.8897 19.7663 19.0555 19.2877 19.0555H4.7126ZM4.7126 17.6345H19.2877C19.3606 17.6345 19.4274 17.6041 19.4882 17.5434C19.5489 17.4826 19.5793 17.4158 19.5793 17.3429V6.55732C19.5793 6.48444 19.5489 6.41762 19.4882 6.35688C19.4274 6.29615 19.3606 6.26579 19.2877 6.26579H4.7126C4.63971 6.26579 4.57289 6.29615 4.51215 6.35688C4.45142 6.41762 4.42106 6.48444 4.42106 6.55732V17.3429C4.42106 17.4158 4.45142 17.4826 4.51215 17.5434C4.57289 17.6041 4.63971 17.6345 4.7126 17.6345Z" fill="#1C1C1C"/>
</svg>
