<svg width="24" height="24" viewBox="0 0 24 24" fill="none" xmlns="http://www.w3.org/2000/svg">
<path d="M3.0127 6.63237C3.0127 6.15604 3.17772 5.75285 3.50776 5.4228C3.83781 5.09276 4.241 4.92773 4.71733 4.92773H19.2248C19.7011 4.92773 20.1043 5.09276 20.4343 5.4228C20.7644 5.75285 20.9294 6.15604 20.9294 6.63237V8.69968C20.9294 8.90007 20.8616 9.06804 20.726 9.20359C20.5904 9.33915 20.4223 9.40692 20.2219 9.40692C20.0214 9.40692 19.8534 9.33915 19.718 9.20359C19.5826 9.06804 19.515 8.90007 19.515 8.69968V6.63237C19.515 6.55983 19.4847 6.49332 19.4243 6.43286C19.3638 6.37242 19.2973 6.34219 19.2248 6.34219H4.71733C4.64479 6.34219 4.57828 6.37242 4.51782 6.43286C4.45738 6.49332 4.42715 6.55983 4.42715 6.63237V8.69968C4.42715 8.90007 4.35934 9.06804 4.22373 9.20359C4.08813 9.33915 3.92008 9.40692 3.71961 9.40692C3.51914 9.40692 3.35121 9.33915 3.21581 9.20359C3.0804 9.06804 3.0127 8.90007 3.0127 8.69968V6.63237ZM4.71733 19.0725C4.241 19.0725 3.83781 18.9075 3.50776 18.5774C3.17772 18.2474 3.0127 17.8442 3.0127 17.3679V15.3005C3.0127 15.1002 3.0805 14.9322 3.21612 14.7966C3.35174 14.6611 3.51978 14.5933 3.72024 14.5933C3.92072 14.5933 4.08866 14.6611 4.22406 14.7966C4.35945 14.9322 4.42715 15.1002 4.42715 15.3005V17.3679C4.42715 17.4404 4.45738 17.5069 4.51782 17.5674C4.57828 17.6278 4.64479 17.658 4.71733 17.658H19.2248C19.2973 17.658 19.3638 17.6278 19.4243 17.5674C19.4847 17.5069 19.515 17.4404 19.515 17.3679V15.3005C19.515 15.1002 19.5828 14.9322 19.7184 14.7966C19.854 14.6611 20.022 14.5933 20.2225 14.5933C20.423 14.5933 20.5909 14.6611 20.7263 14.7966C20.8617 14.9322 20.9294 15.1002 20.9294 15.3005V17.3679C20.9294 17.8442 20.7644 18.2474 20.4343 18.5774C20.1043 18.9075 19.7011 19.0725 19.2248 19.0725H4.71733ZM10.0853 16.4793C10.2157 16.4793 10.3402 16.4466 10.4586 16.3814C10.5771 16.3161 10.666 16.2182 10.7252 16.0876L13.857 9.82396L15.1029 12.3156C15.1621 12.4462 15.2511 12.5441 15.3696 12.6094C15.4881 12.6747 15.6126 12.7073 15.743 12.7073H20.2222C20.4226 12.7073 20.5905 12.6395 20.7261 12.5039C20.8616 12.3683 20.9294 12.2003 20.9294 11.9998C20.9294 11.7993 20.8616 11.6314 20.7261 11.496C20.5905 11.3606 20.4226 11.2929 20.2222 11.2929H16.1873L14.4971 7.91264C14.4391 7.7863 14.3521 7.69729 14.236 7.64561C14.12 7.59394 13.9951 7.5681 13.8616 7.5681C13.728 7.5681 13.6019 7.59394 13.4835 7.64561C13.365 7.69729 13.2761 7.7863 13.2169 7.91264L10.0851 14.1763L8.83923 11.6846C8.77996 11.554 8.69105 11.4561 8.5725 11.3908C8.45397 11.3255 8.3295 11.2929 8.1991 11.2929H3.71994C3.51955 11.2929 3.35158 11.3607 3.21603 11.4963C3.08047 11.6319 3.0127 11.8 3.0127 12.0004C3.0127 12.2009 3.08047 12.3688 3.21603 12.5042C3.35158 12.6396 3.51955 12.7073 3.71994 12.7073H7.75481L9.44495 16.0876C9.50424 16.2182 9.59317 16.3161 9.71175 16.3814C9.83033 16.4466 9.95483 16.4793 10.0853 16.4793Z" fill="white"/>
<path d="M3.0127 6.63237C3.0127 6.15604 3.17772 5.75285 3.50776 5.4228C3.83781 5.09276 4.241 4.92773 4.71733 4.92773H19.2248C19.7011 4.92773 20.1043 5.09276 20.4343 5.4228C20.7644 5.75285 20.9294 6.15604 20.9294 6.63237V8.69968C20.9294 8.90007 20.8616 9.06804 20.726 9.20359C20.5904 9.33915 20.4223 9.40692 20.2219 9.40692C20.0214 9.40692 19.8534 9.33915 19.718 9.20359C19.5826 9.06804 19.515 8.90007 19.515 8.69968V6.63237C19.515 6.55983 19.4847 6.49332 19.4243 6.43286C19.3638 6.37242 19.2973 6.34219 19.2248 6.34219H4.71733C4.64479 6.34219 4.57828 6.37242 4.51782 6.43286C4.45738 6.49332 4.42715 6.55983 4.42715 6.63237V8.69968C4.42715 8.90007 4.35934 9.06804 4.22373 9.20359C4.08813 9.33915 3.92008 9.40692 3.71961 9.40692C3.51914 9.40692 3.35121 9.33915 3.21581 9.20359C3.0804 9.06804 3.0127 8.90007 3.0127 8.69968V6.63237ZM4.71733 19.0725C4.241 19.0725 3.83781 18.9075 3.50776 18.5774C3.17772 18.2474 3.0127 17.8442 3.0127 17.3679V15.3005C3.0127 15.1002 3.0805 14.9322 3.21612 14.7966C3.35174 14.6611 3.51978 14.5933 3.72024 14.5933C3.92072 14.5933 4.08866 14.6611 4.22406 14.7966C4.35945 14.9322 4.42715 15.1002 4.42715 15.3005V17.3679C4.42715 17.4404 4.45738 17.5069 4.51782 17.5674C4.57828 17.6278 4.64479 17.658 4.71733 17.658H19.2248C19.2973 17.658 19.3638 17.6278 19.4243 17.5674C19.4847 17.5069 19.515 17.4404 19.515 17.3679V15.3005C19.515 15.1002 19.5828 14.9322 19.7184 14.7966C19.854 14.6611 20.022 14.5933 20.2225 14.5933C20.423 14.5933 20.5909 14.6611 20.7263 14.7966C20.8617 14.9322 20.9294 15.1002 20.9294 15.3005V17.3679C20.9294 17.8442 20.7644 18.2474 20.4343 18.5774C20.1043 18.9075 19.7011 19.0725 19.2248 19.0725H4.71733ZM10.0853 16.4793C10.2157 16.4793 10.3402 16.4466 10.4586 16.3814C10.5771 16.3161 10.666 16.2182 10.7252 16.0876L13.857 9.82396L15.1029 12.3156C15.1621 12.4462 15.2511 12.5441 15.3696 12.6094C15.4881 12.6747 15.6126 12.7073 15.743 12.7073H20.2222C20.4226 12.7073 20.5905 12.6395 20.7261 12.5039C20.8616 12.3683 20.9294 12.2003 20.9294 11.9998C20.9294 11.7993 20.8616 11.6314 20.7261 11.496C20.5905 11.3606 20.4226 11.2929 20.2222 11.2929H16.1873L14.4971 7.91264C14.4391 7.7863 14.3521 7.69729 14.236 7.64561C14.12 7.59394 13.9951 7.5681 13.8616 7.5681C13.728 7.5681 13.6019 7.59394 13.4835 7.64561C13.365 7.69729 13.2761 7.7863 13.2169 7.91264L10.0851 14.1763L8.83923 11.6846C8.77996 11.554 8.69105 11.4561 8.5725 11.3908C8.45397 11.3255 8.3295 11.2929 8.1991 11.2929H3.71994C3.51955 11.2929 3.35158 11.3607 3.21603 11.4963C3.08047 11.6319 3.0127 11.8 3.0127 12.0004C3.0127 12.2009 3.08047 12.3688 3.21603 12.5042C3.35158 12.6396 3.51955 12.7073 3.71994 12.7073H7.75481L9.44495 16.0876C9.50424 16.2182 9.59317 16.3161 9.71175 16.3814C9.83033 16.4466 9.95483 16.4793 10.0853 16.4793Z" fill="#1C1C1C"/>
</svg>
