<svg width="24" height="25" viewBox="0 0 24 25" fill="none" xmlns="http://www.w3.org/2000/svg">
<path d="M4.98627 12.0001C4.98627 13.6226 5.47126 15.0621 6.44124 16.3185C7.41122 17.5749 8.67036 18.3952 10.2187 18.7796C10.4181 18.844 10.5814 18.9672 10.7085 19.149C10.8356 19.3308 10.8991 19.5342 10.8991 19.7592C10.8991 20.084 10.7648 20.3427 10.496 20.5355C10.2272 20.7283 9.93042 20.7699 9.60569 20.6605C7.62684 20.1217 6.02777 19.0544 4.80846 17.4587C3.58915 15.8629 2.97949 14.0434 2.97949 12.0001C2.97949 9.95678 3.58915 8.13725 4.80846 6.54152C6.02777 4.94581 7.62684 3.87854 9.60569 3.33974C9.93042 3.23028 10.2272 3.27193 10.496 3.46471C10.7648 3.65748 10.8991 3.91623 10.8991 4.24097C10.8991 4.46596 10.8356 4.66937 10.7085 4.85121C10.5814 5.03304 10.4181 5.15618 10.2187 5.22062C8.67036 5.60497 7.41122 6.42534 6.44124 7.68174C5.47126 8.93815 4.98627 10.3776 4.98627 12.0001ZM18.3609 18.3599C17.8184 18.9121 17.2057 19.3849 16.5228 19.7784C15.8399 20.1718 15.1171 20.4659 14.3545 20.6605C14.0298 20.7638 13.7315 20.7207 13.4597 20.5309C13.1878 20.3412 13.0519 20.084 13.0519 19.7592C13.0519 19.5342 13.1155 19.3308 13.2426 19.149C13.3697 18.9672 13.536 18.844 13.7415 18.7796C14.3533 18.6336 14.9332 18.4041 15.4811 18.0909C16.029 17.7777 16.5244 17.3997 16.9671 16.957C17.4037 16.5045 17.7747 16.0107 18.08 15.4756C18.3853 14.9404 18.6157 14.3651 18.7714 13.7497C18.8359 13.5441 18.959 13.3778 19.1409 13.2507C19.3227 13.1236 19.5261 13.0601 19.7511 13.0601C20.0758 13.0601 20.3331 13.196 20.5228 13.4678C20.7125 13.7396 20.7557 14.0379 20.6523 14.3627C20.4577 15.1253 20.1652 15.8441 19.7748 16.5191C19.3844 17.1941 18.9131 17.8077 18.3609 18.3599ZM18.3609 5.6403C18.9131 6.19248 19.3844 6.80609 19.7748 7.48112C20.1652 8.15614 20.4577 8.87495 20.6523 9.63755C20.7557 9.96228 20.7125 10.2606 20.5228 10.5324C20.3331 10.8042 20.0758 10.9401 19.7511 10.9401C19.5261 10.9401 19.3227 10.8766 19.1409 10.7495C18.959 10.6224 18.8359 10.4561 18.7714 10.2505C18.6157 9.6351 18.3853 9.0598 18.08 8.52465C17.7747 7.98948 17.4037 7.49567 16.9671 7.04321C16.5244 6.60049 16.029 6.22253 15.4811 5.90934C14.9332 5.59615 14.3533 5.36658 13.7415 5.22062C13.536 5.15618 13.3697 5.03304 13.2426 4.85121C13.1155 4.66937 13.0519 4.46596 13.0519 4.24097C13.0519 3.91623 13.1878 3.659 13.4597 3.46928C13.7315 3.27955 14.0298 3.23637 14.3545 3.33974C15.1171 3.53435 15.8399 3.82838 16.5228 4.22183C17.2057 4.61529 17.8184 5.08812 18.3609 5.6403Z" fill="white"/>
<path d="M4.98627 12.0001C4.98627 13.6226 5.47126 15.0621 6.44124 16.3185C7.41122 17.5749 8.67036 18.3952 10.2187 18.7796C10.4181 18.844 10.5814 18.9672 10.7085 19.149C10.8356 19.3308 10.8991 19.5342 10.8991 19.7592C10.8991 20.084 10.7648 20.3427 10.496 20.5355C10.2272 20.7283 9.93042 20.7699 9.60569 20.6605C7.62684 20.1217 6.02777 19.0544 4.80846 17.4587C3.58915 15.8629 2.97949 14.0434 2.97949 12.0001C2.97949 9.95678 3.58915 8.13725 4.80846 6.54152C6.02777 4.94581 7.62684 3.87854 9.60569 3.33974C9.93042 3.23028 10.2272 3.27193 10.496 3.46471C10.7648 3.65748 10.8991 3.91623 10.8991 4.24097C10.8991 4.46596 10.8356 4.66937 10.7085 4.85121C10.5814 5.03304 10.4181 5.15618 10.2187 5.22062C8.67036 5.60497 7.41122 6.42534 6.44124 7.68174C5.47126 8.93815 4.98627 10.3776 4.98627 12.0001ZM18.3609 18.3599C17.8184 18.9121 17.2057 19.3849 16.5228 19.7784C15.8399 20.1718 15.1171 20.4659 14.3545 20.6605C14.0298 20.7638 13.7315 20.7207 13.4597 20.5309C13.1878 20.3412 13.0519 20.084 13.0519 19.7592C13.0519 19.5342 13.1155 19.3308 13.2426 19.149C13.3697 18.9672 13.536 18.844 13.7415 18.7796C14.3533 18.6336 14.9332 18.4041 15.4811 18.0909C16.029 17.7777 16.5244 17.3997 16.9671 16.957C17.4037 16.5045 17.7747 16.0107 18.08 15.4756C18.3853 14.9404 18.6157 14.3651 18.7714 13.7497C18.8359 13.5441 18.959 13.3778 19.1409 13.2507C19.3227 13.1236 19.5261 13.0601 19.7511 13.0601C20.0758 13.0601 20.3331 13.196 20.5228 13.4678C20.7125 13.7396 20.7557 14.0379 20.6523 14.3627C20.4577 15.1253 20.1652 15.8441 19.7748 16.5191C19.3844 17.1941 18.9131 17.8077 18.3609 18.3599ZM18.3609 5.6403C18.9131 6.19248 19.3844 6.80609 19.7748 7.48112C20.1652 8.15614 20.4577 8.87495 20.6523 9.63755C20.7557 9.96228 20.7125 10.2606 20.5228 10.5324C20.3331 10.8042 20.0758 10.9401 19.7511 10.9401C19.5261 10.9401 19.3227 10.8766 19.1409 10.7495C18.959 10.6224 18.8359 10.4561 18.7714 10.2505C18.6157 9.6351 18.3853 9.0598 18.08 8.52465C17.7747 7.98948 17.4037 7.49567 16.9671 7.04321C16.5244 6.60049 16.029 6.22253 15.4811 5.90934C14.9332 5.59615 14.3533 5.36658 13.7415 5.22062C13.536 5.15618 13.3697 5.03304 13.2426 4.85121C13.1155 4.66937 13.0519 4.46596 13.0519 4.24097C13.0519 3.91623 13.1878 3.659 13.4597 3.46928C13.7315 3.27955 14.0298 3.23637 14.3545 3.33974C15.1171 3.53435 15.8399 3.82838 16.5228 4.22183C17.2057 4.61529 17.8184 5.08812 18.3609 5.6403Z" fill="#1C1C1C"/>
</svg>
