<svg width="24" height="24" viewBox="0 0 24 24" fill="none" xmlns="http://www.w3.org/2000/svg">
<path d="M20 12.0498C20 16.4681 16.4183 20.0498 12 20.0498C7.58172 20.0498 4 16.4681 4 12.0498C4 7.63153 7.58172 4.0498 12 4.0498C16.4183 4.0498 20 7.63153 20 12.0498Z" fill="#FF9A00"/>
<path d="M3.5 20.5498L5 15.5498L9.5 19.0498L3.5 20.5498Z" fill="#FF9A00"/>
<path d="M8.67479 13.1996H12.723C12.894 13.1997 13.0586 13.2647 13.1836 13.3814C13.3086 13.4982 13.3846 13.658 13.3962 13.8286C13.4079 13.9992 13.3543 14.1679 13.2464 14.3006C13.1385 14.4332 12.9842 14.52 12.8148 14.5433L12.723 14.5496H8.67479C8.50377 14.5495 8.33915 14.4846 8.21418 14.3678C8.08922 14.2511 8.01323 14.0912 8.00157 13.9206C7.98991 13.75 8.04346 13.5813 8.15138 13.4487C8.25931 13.316 8.41357 13.2293 8.58299 13.2059L8.67479 13.1996ZM8.67479 10.0498H14.5293C14.7002 10.0501 14.8647 10.1152 14.9895 10.232C15.1143 10.3488 15.1901 10.5087 15.2017 10.6792C15.2132 10.8498 15.1596 11.0183 15.0517 11.1509C14.9437 11.2835 14.7895 11.3701 14.6202 11.3934L14.5293 11.3997H8.67479C8.50377 11.3997 8.33915 11.3347 8.21418 11.218C8.08922 11.1012 8.01323 10.9414 8.00157 10.7708C7.98991 10.6002 8.04346 10.4315 8.15138 10.2988C8.25931 10.1662 8.41357 10.0794 8.58299 10.0561L8.67479 10.0498Z" fill="#FEF4C0"/>
<path d="M12.723 13.1996H8.67479L8.58299 13.2059C8.41357 13.2293 8.25931 13.316 8.15138 13.4487C8.04346 13.5813 7.98991 13.75 8.00157 13.9206C8.01323 14.0912 8.08922 14.2511 8.21418 14.3678C8.33915 14.4846 8.50377 14.5495 8.67479 14.5496H12.723L12.8148 14.5433C12.9842 14.52 13.1385 14.4332 13.2464 14.3006C13.3543 14.1679 13.4079 13.9992 13.3962 13.8286C13.3846 13.658 13.3086 13.4982 13.1836 13.3814C13.0586 13.2647 12.894 13.1997 12.723 13.1996Z" fill="#FEF4C0"/>
<path d="M14.5293 10.0498H8.67479L8.58299 10.0561C8.41357 10.0794 8.25931 10.1662 8.15138 10.2988C8.04346 10.4315 7.98991 10.6002 8.00157 10.7708C8.01323 10.9414 8.08922 11.1012 8.21418 11.218C8.33915 11.3347 8.50377 11.3997 8.67479 11.3997H14.5293L14.6202 11.3934C14.7895 11.3701 14.9437 11.2835 15.0517 11.1509C15.1596 11.0183 15.2132 10.8498 15.2017 10.6792C15.1901 10.5087 15.1143 10.3488 14.9895 10.232C14.8647 10.1152 14.7002 10.0501 14.5293 10.0498Z" fill="#FEF4C0"/>
<path d="M12.723 13.1996H8.67479L8.58299 13.2059C8.41357 13.2293 8.25931 13.316 8.15138 13.4487C8.04346 13.5813 7.98991 13.75 8.00157 13.9206C8.01323 14.0912 8.08922 14.2511 8.21418 14.3678C8.33915 14.4846 8.50377 14.5495 8.67479 14.5496H12.723L12.8148 14.5433C12.9842 14.52 13.1385 14.4332 13.2464 14.3006C13.3543 14.1679 13.4079 13.9992 13.3962 13.8286C13.3846 13.658 13.3086 13.4982 13.1836 13.3814C13.0586 13.2647 12.894 13.1997 12.723 13.1996Z" fill="#FEF4C0"/>
<path d="M14.5293 10.0498H8.67479L8.58299 10.0561C8.41357 10.0794 8.25931 10.1662 8.15138 10.2988C8.04346 10.4315 7.98991 10.6002 8.00157 10.7708C8.01323 10.9414 8.08922 11.1012 8.21418 11.218C8.33915 11.3347 8.50377 11.3997 8.67479 11.3997H14.5293L14.6202 11.3934C14.7895 11.3701 14.9437 11.2835 15.0517 11.1509C15.1596 11.0183 15.2132 10.8498 15.2017 10.6792C15.1901 10.5087 15.1143 10.3488 14.9895 10.232C14.8647 10.1152 14.7002 10.0501 14.5293 10.0498Z" fill="#FEF4C0"/>
<path d="M12 3.0498C16.9707 3.0498 21 7.0789 21 12.0494C21 17.0198 16.9707 21.0489 12 21.0489C10.5636 21.0509 9.14774 20.7077 7.87171 20.0481L4.42831 21.0084C4.23619 21.062 4.03328 21.0636 3.84036 21.013C3.64744 20.9623 3.47144 20.8613 3.33041 20.7203C3.18937 20.5793 3.08837 20.4033 3.03774 20.2104C2.98712 20.0175 2.98869 19.8146 3.04231 19.6225L4.00351 16.1819C3.34232 14.9049 2.99814 13.4874 3.00001 12.0494C3.00001 7.0789 7.02931 3.0498 12 3.0498ZM12 4.39974C9.9711 4.39974 8.02529 5.20568 6.59064 6.64026C5.15599 8.07484 4.35001 10.0205 4.35001 12.0494C4.35001 13.3723 4.68571 14.6439 5.31571 15.7725L5.45071 16.0155L4.44991 19.6009L8.03821 18.6001L8.28121 18.7351C9.30215 19.3027 10.4395 19.629 11.6061 19.6889C12.7727 19.7488 13.9375 19.5408 15.0113 19.0808C16.085 18.6208 17.0391 17.921 17.8005 17.0351C18.5618 16.1492 19.1101 15.1007 19.4035 13.9701C19.6968 12.8394 19.7272 11.6566 19.4925 10.5124C19.2578 9.36815 18.7642 8.29284 18.0495 7.36893C17.3348 6.44501 16.4179 5.69704 15.3693 5.18236C14.3207 4.66768 13.1681 4.39996 12 4.39974Z" fill="#FF9A00"/>
</svg>
