<svg width="24" height="24" viewBox="0 0 24 24" fill="none" xmlns="http://www.w3.org/2000/svg">
<path d="M12 3C16.9707 3 21 7.0291 21 11.9995C21 16.97 16.9707 20.9991 12 20.9991C10.5636 21.0011 9.14774 20.6579 7.87171 19.9983L4.42831 20.9586C4.23619 21.0122 4.03328 21.0138 3.84036 20.9632C3.64744 20.9125 3.47144 20.8115 3.33041 20.6705C3.18937 20.5295 3.08837 20.3535 3.03774 20.1606C2.98712 19.9677 2.98869 19.7648 3.04231 19.5727L4.00351 16.1321C3.34232 14.855 2.99814 13.4376 3.00001 11.9995C3.00001 7.0291 7.02931 3 12 3ZM12 4.34993C9.9711 4.34993 8.02529 5.15587 6.59064 6.59045C5.15599 8.02503 4.35001 9.97074 4.35001 11.9995C4.35001 13.3225 4.68571 14.5941 5.31571 15.7227L5.45071 15.9656L4.44991 19.5511L8.03821 18.5503L8.28121 18.6853C9.30215 19.2529 10.4395 19.5792 11.6061 19.6391C12.7727 19.699 13.9375 19.491 15.0113 19.031C16.085 18.571 17.0391 17.8712 17.8005 16.9853C18.5618 16.0994 19.1101 15.0509 19.4035 13.9203C19.6968 12.7896 19.7272 11.6068 19.4925 10.4626C19.2578 9.31834 18.7642 8.24303 18.0495 7.31912C17.3348 6.39521 16.4179 5.64723 15.3693 5.13255C14.3207 4.61787 13.1681 4.35016 12 4.34993ZM9.07501 12.8995H13.1232C13.2942 12.8996 13.4589 12.9645 13.5838 13.0813C13.7088 13.198 13.7848 13.3578 13.7964 13.5285C13.8081 13.6991 13.7545 13.8678 13.6466 14.0004C13.5387 14.1331 13.3844 14.2198 13.215 14.2431L13.1232 14.2494H9.07501C8.90398 14.2494 8.73936 14.1844 8.61439 14.0677C8.48943 13.9509 8.41344 13.7911 8.40178 13.6205C8.39013 13.4499 8.44367 13.2812 8.55159 13.1485C8.65952 13.0159 8.81378 12.9291 8.98321 12.9058L9.07501 12.8995ZM9.07501 9.74966H14.9295C15.1004 9.74994 15.2649 9.81506 15.3897 9.93188C15.5145 10.0487 15.5903 10.2085 15.6019 10.3791C15.6134 10.5496 15.5598 10.7182 15.4519 10.8507C15.344 10.9833 15.1898 11.07 15.0204 11.0933L14.9295 11.0996H9.07501C8.90398 11.0995 8.73936 11.0346 8.61439 10.9178C8.48943 10.8011 8.41344 10.6412 8.40178 10.4706C8.39013 10.3 8.44367 10.1313 8.55159 9.99868C8.65952 9.86602 8.81378 9.77927 8.98321 9.75596L9.07501 9.74966Z" fill="white"/>
<path d="M12 3C16.9707 3 21 7.0291 21 11.9995C21 16.97 16.9707 20.9991 12 20.9991C10.5636 21.0011 9.14774 20.6579 7.87171 19.9983L4.42831 20.9586C4.23619 21.0122 4.03328 21.0138 3.84036 20.9632C3.64744 20.9125 3.47144 20.8115 3.33041 20.6705C3.18937 20.5295 3.08837 20.3535 3.03774 20.1606C2.98712 19.9677 2.98869 19.7648 3.04231 19.5727L4.00351 16.1321C3.34232 14.855 2.99814 13.4376 3.00001 11.9995C3.00001 7.0291 7.02931 3 12 3ZM12 4.34993C9.9711 4.34993 8.02529 5.15587 6.59064 6.59045C5.15599 8.02503 4.35001 9.97074 4.35001 11.9995C4.35001 13.3225 4.68571 14.5941 5.31571 15.7227L5.45071 15.9656L4.44991 19.5511L8.03821 18.5503L8.28121 18.6853C9.30215 19.2529 10.4395 19.5792 11.6061 19.6391C12.7727 19.699 13.9375 19.491 15.0113 19.031C16.085 18.571 17.0391 17.8712 17.8005 16.9853C18.5618 16.0994 19.1101 15.0509 19.4035 13.9203C19.6968 12.7896 19.7272 11.6068 19.4925 10.4626C19.2578 9.31834 18.7642 8.24303 18.0495 7.31912C17.3348 6.39521 16.4179 5.64723 15.3693 5.13255C14.3207 4.61787 13.1681 4.35016 12 4.34993ZM9.07501 12.8995H13.1232C13.2942 12.8996 13.4589 12.9645 13.5838 13.0813C13.7088 13.198 13.7848 13.3578 13.7964 13.5285C13.8081 13.6991 13.7545 13.8678 13.6466 14.0004C13.5387 14.1331 13.3844 14.2198 13.215 14.2431L13.1232 14.2494H9.07501C8.90398 14.2494 8.73936 14.1844 8.61439 14.0677C8.48943 13.9509 8.41344 13.7911 8.40178 13.6205C8.39013 13.4499 8.44367 13.2812 8.55159 13.1485C8.65952 13.0159 8.81378 12.9291 8.98321 12.9058L9.07501 12.8995ZM9.07501 9.74966H14.9295C15.1004 9.74994 15.2649 9.81506 15.3897 9.93188C15.5145 10.0487 15.5903 10.2085 15.6019 10.3791C15.6134 10.5496 15.5598 10.7182 15.4519 10.8507C15.344 10.9833 15.1898 11.07 15.0204 11.0933L14.9295 11.0996H9.07501C8.90398 11.0995 8.73936 11.0346 8.61439 10.9178C8.48943 10.8011 8.41344 10.6412 8.40178 10.4706C8.39013 10.3 8.44367 10.1313 8.55159 9.99868C8.65952 9.86602 8.81378 9.77927 8.98321 9.75596L9.07501 9.74966Z" fill="#1C1C1C"/>
</svg>
