<svg width="24" height="24" viewBox="0 0 24 24" fill="none" xmlns="http://www.w3.org/2000/svg">
<path d="M6.21438 18.7509H9.93142V13.2273C9.93142 13.0039 10.0054 12.8161 10.1535 12.6638C10.3015 12.5115 10.4842 12.4354 10.7013 12.4354H14.312C14.519 12.4354 14.6968 12.5115 14.8455 12.6638C14.9942 12.8161 15.0686 13.0039 15.0686 13.2273V18.7509H18.7856V9.19471C18.7856 9.1412 18.7742 9.09271 18.7515 9.04924C18.7287 9.00576 18.6978 8.9673 18.6588 8.93384L12.6853 4.31928C12.6333 4.27691 12.5715 4.25573 12.5 4.25573C12.4285 4.25573 12.3667 4.27691 12.3147 4.31928L6.34119 8.93384C6.30217 8.9673 6.27128 9.00576 6.24852 9.04924C6.22576 9.09271 6.21438 9.1412 6.21438 9.19471V18.7509ZM5 18.7509V9.20152C5 8.94666 5.05116 8.71069 5.15348 8.49363C5.25581 8.27658 5.40906 8.0943 5.61323 7.94678L11.5867 3.31537C11.8557 3.10512 12.1596 3 12.4984 3C12.8372 3 13.1421 3.10512 13.4133 3.31537L19.3868 7.94678C19.5909 8.0943 19.7442 8.27658 19.8465 8.49363C19.9488 8.71069 20 8.94666 20 9.20152V18.7509C20 19.0908 19.8802 19.3839 19.6406 19.6303C19.401 19.8768 19.116 20 18.7856 20H14.6242C14.407 20 14.2243 19.9239 14.0763 19.7716C13.9282 19.6193 13.8542 19.4315 13.8542 19.2081V13.6844H11.1458V19.2081C11.1458 19.4315 11.0716 19.6193 10.9231 19.7716C10.7747 19.9239 10.5972 20 10.3907 20H6.20848C5.88259 20 5.5997 19.8768 5.35982 19.6303C5.11994 19.3839 5 19.0908 5 18.7509Z" fill="#FF9A00"/>
<path d="M19.1567 8.59766L13.0219 3.81641H12.2395L5.44336 8.59766V19.1838L10.3754 19.4244V13.109H14.6458V19.1838L19.3974 19.4244L19.1567 8.59766Z" fill="#FF9A00"/>
</svg>
