<svg width="24" height="24" viewBox="0 0 24 24" fill="none" xmlns="http://www.w3.org/2000/svg">
<path d="M12.6377 21C12.4543 21 12.3001 20.9375 12.1753 20.8124C12.0504 20.6874 11.9879 20.533 11.9879 20.3493C11.9879 20.1749 12.0504 20.0263 12.1753 19.9034C12.3001 19.7805 12.4543 19.7191 12.6377 19.7191H19.3841C19.4667 19.7191 19.5425 19.6848 19.6113 19.6162C19.6802 19.5476 19.7146 19.4721 19.7146 19.3898V4.61017C19.7146 4.52785 19.6802 4.45239 19.6113 4.38378C19.5425 4.31519 19.4667 4.2809 19.3841 4.2809H12.6377C12.4543 4.2809 12.3001 4.21837 12.1753 4.09332C12.0504 3.96826 11.9879 3.81387 11.9879 3.63016C11.9879 3.45582 12.0504 3.30721 12.1753 3.18434C12.3001 3.06145 12.4543 3 12.6377 3H19.3841C19.8241 3 20.2034 3.15875 20.5221 3.47624C20.8407 3.79375 21 4.17173 21 4.61017V19.3898C21 19.8283 20.8407 20.2062 20.5221 20.5237C20.2034 20.8412 19.8241 21 19.3841 21H12.6377ZM12.6172 12.6404H3.64976C3.46634 12.6404 3.31218 12.5779 3.1873 12.4529C3.06243 12.3278 3 12.1734 3 11.9897C3 11.8154 3.06243 11.6668 3.1873 11.5439C3.31218 11.421 3.46634 11.3595 3.64976 11.3595H12.5951L10.4596 9.2315C10.3324 9.10827 10.269 8.95943 10.2692 8.78498C10.2695 8.61053 10.3377 8.45728 10.474 8.32524C10.6009 8.19916 10.7519 8.13709 10.9271 8.13903C11.1023 8.14098 11.2565 8.20352 11.3897 8.32666L14.5167 11.4427C14.6759 11.6058 14.7554 11.7973 14.7554 12.0171C14.7554 12.237 14.6761 12.4241 14.5176 12.5784L11.4025 15.6825C11.2746 15.8075 11.125 15.8688 10.9538 15.8664C10.7826 15.864 10.63 15.7977 10.4959 15.6674C10.3643 15.5403 10.298 15.3892 10.2971 15.2142C10.2962 15.0391 10.3616 14.8843 10.4933 14.7496L12.6172 12.6404Z" fill="white"/>
<path d="M12.6377 21C12.4543 21 12.3001 20.9375 12.1753 20.8124C12.0504 20.6874 11.9879 20.533 11.9879 20.3493C11.9879 20.1749 12.0504 20.0263 12.1753 19.9034C12.3001 19.7805 12.4543 19.7191 12.6377 19.7191H19.3841C19.4667 19.7191 19.5425 19.6848 19.6113 19.6162C19.6802 19.5476 19.7146 19.4721 19.7146 19.3898V4.61017C19.7146 4.52785 19.6802 4.45239 19.6113 4.38378C19.5425 4.31519 19.4667 4.2809 19.3841 4.2809H12.6377C12.4543 4.2809 12.3001 4.21837 12.1753 4.09332C12.0504 3.96826 11.9879 3.81387 11.9879 3.63016C11.9879 3.45582 12.0504 3.30721 12.1753 3.18434C12.3001 3.06145 12.4543 3 12.6377 3H19.3841C19.8241 3 20.2034 3.15875 20.5221 3.47624C20.8407 3.79375 21 4.17173 21 4.61017V19.3898C21 19.8283 20.8407 20.2062 20.5221 20.5237C20.2034 20.8412 19.8241 21 19.3841 21H12.6377ZM12.6172 12.6404H3.64976C3.46634 12.6404 3.31218 12.5779 3.1873 12.4529C3.06243 12.3278 3 12.1734 3 11.9897C3 11.8154 3.06243 11.6668 3.1873 11.5439C3.31218 11.421 3.46634 11.3595 3.64976 11.3595H12.5951L10.4596 9.2315C10.3324 9.10827 10.269 8.95943 10.2692 8.78498C10.2695 8.61053 10.3377 8.45728 10.474 8.32524C10.6009 8.19916 10.7519 8.13709 10.9271 8.13903C11.1023 8.14098 11.2565 8.20352 11.3897 8.32666L14.5167 11.4427C14.6759 11.6058 14.7554 11.7973 14.7554 12.0171C14.7554 12.237 14.6761 12.4241 14.5176 12.5784L11.4025 15.6825C11.2746 15.8075 11.125 15.8688 10.9538 15.8664C10.7826 15.864 10.63 15.7977 10.4959 15.6674C10.3643 15.5403 10.298 15.3892 10.2971 15.2142C10.2962 15.0391 10.3616 14.8843 10.4933 14.7496L12.6172 12.6404Z" fill="#1C1C1C"/>
</svg>
