<svg width="24" height="24" viewBox="0 0 24 24" fill="none" xmlns="http://www.w3.org/2000/svg">
<path d="M4.6465 21C4.19778 21 3.81119 20.8413 3.48671 20.524C3.16224 20.2067 3 19.8286 3 19.3898V4.61017C3 4.17136 3.16224 3.79329 3.48671 3.47597C3.81119 3.15866 4.19778 3 4.6465 3H11.5352C11.7116 3 11.8636 3.06275 11.9913 3.18824C12.119 3.31374 12.1829 3.46321 12.1829 3.63666C12.1829 3.82037 12.119 3.97367 11.9913 4.09656C11.8636 4.21945 11.7116 4.2809 11.5352 4.2809H4.6465C4.56232 4.2809 4.48516 4.31519 4.415 4.38378C4.34487 4.45239 4.3098 4.52785 4.3098 4.61017V19.3898C4.3098 19.4721 4.34487 19.5476 4.415 19.6162C4.48516 19.6848 4.56232 19.7191 4.6465 19.7191H11.5352C11.7116 19.7191 11.8636 19.7818 11.9913 19.9073C12.119 20.0328 12.1829 20.1823 12.1829 20.3558C12.1829 20.5395 12.119 20.6928 11.9913 20.8157C11.8636 20.9386 11.7116 21 11.5352 21H4.6465ZM18.8212 12.6404H9.69435C9.50743 12.6404 9.35035 12.5779 9.22312 12.4529C9.09587 12.3278 9.03224 12.1749 9.03224 11.9942C9.03224 11.8169 9.09587 11.6668 9.22312 11.5439C9.35035 11.421 9.50743 11.3595 9.69435 11.3595H18.7988L16.6239 9.23265C16.4936 9.10865 16.4285 8.95916 16.4288 8.78418C16.429 8.60919 16.4986 8.45621 16.6374 8.32524C16.7667 8.19916 16.9206 8.13709 17.0991 8.13903C17.2776 8.14098 17.4347 8.20352 17.5704 8.32666L20.7568 11.4427C20.9189 11.6058 21 11.7973 21 12.0171C21 12.237 20.9192 12.4241 20.7577 12.5784L17.5835 15.6825C17.4528 15.8075 17.3003 15.8688 17.1261 15.8664C16.9518 15.864 16.7964 15.7991 16.6597 15.6718C16.5256 15.5417 16.4581 15.3892 16.4572 15.2142C16.4562 15.0391 16.5233 14.8843 16.6582 14.7496L18.8212 12.6404Z" fill="#FF9A00"/>
</svg>
