<svg width="24" height="24" viewBox="0 0 24 24" fill="none" xmlns="http://www.w3.org/2000/svg">
<path d="M21 12C21 16.9706 16.9706 21 12 21C7.02944 21 3 16.9706 3 12C3 7.02944 7.02944 3 12 3C16.9706 3 21 7.02944 21 12Z" fill="#FF9A00"/>
<path d="M6.19137 17.3087C7.10478 16.6747 8.02763 16.1819 8.95992 15.8303C9.8922 15.4788 10.9056 15.303 12 15.303C13.0944 15.303 14.1081 15.4788 15.041 15.8303C15.9739 16.1819 16.9036 16.6747 17.8302 17.3087C18.5011 16.5443 19.0057 15.7216 19.3441 14.8407C19.6824 13.9598 19.8516 13.0138 19.8516 12.0026C19.8516 9.79889 19.0935 7.93891 17.5773 6.42271C16.0611 4.90651 14.202 4.14841 12 4.14841C9.79801 4.14841 7.93891 4.90651 6.42271 6.42271C4.90651 7.93891 4.14841 9.79889 4.14841 12.0026C4.14841 13.0138 4.31922 13.9598 4.66085 14.8407C5.00245 15.7216 5.51263 16.5443 6.19137 17.3087ZM11.9984 12.5799C11.1348 12.5799 10.4093 12.2856 9.8218 11.697C9.23431 11.1085 8.94057 10.3824 8.94057 9.51884C8.94057 8.65528 9.23485 7.92975 9.82341 7.34225C10.412 6.75476 11.138 6.46101 12.0016 6.46101C12.8652 6.46101 13.5907 6.75529 14.1782 7.34385C14.7657 7.93243 15.0594 8.6585 15.0594 9.52205C15.0594 10.3856 14.7652 11.1112 14.1766 11.6986C13.588 12.2861 12.862 12.5799 11.9984 12.5799ZM12.0035 21C10.7619 21 9.5928 20.7637 8.49629 20.2911C7.39978 19.8185 6.44579 19.1752 5.63434 18.3613C4.8229 17.5474 4.18098 16.5947 3.7086 15.5032C3.2362 14.4116 3 13.2428 3 11.9965C3 10.7552 3.2363 9.58786 3.70891 8.49438C4.18152 7.40088 4.82477 6.44797 5.63866 5.63566C6.45256 4.82334 7.40528 4.18098 8.49682 3.7086C9.58835 3.2362 10.7572 3 12.0035 3C13.2448 3 14.4121 3.2363 15.5056 3.70891C16.5991 4.18152 17.552 4.82477 18.3643 5.63866C19.1767 6.45256 19.819 7.40572 20.2914 8.49814C20.7638 9.59055 21 10.7567 21 11.9965C21 13.2381 20.7637 14.4072 20.2911 15.5037C19.8185 16.6002 19.1752 17.5542 18.3613 18.3657C17.5474 19.1771 16.5943 19.819 15.5019 20.2914C14.4094 20.7638 13.2433 21 12.0035 21ZM11.9992 19.8516C12.8753 19.8516 13.7305 19.7126 14.5649 19.4345C15.3993 19.1564 16.1836 18.7228 16.9179 18.1337C16.1836 17.6001 15.4061 17.1863 14.5852 16.8924C13.7643 16.5984 12.9031 16.4514 12.0017 16.4514C11.1003 16.4514 10.2343 16.5941 9.40365 16.8794C8.57299 17.1648 7.80119 17.5829 7.08824 18.1337C7.81841 18.7228 8.60046 19.1564 9.43437 19.4345C10.2683 19.7126 11.1232 19.8516 11.9992 19.8516ZM12.0009 11.4315C12.5503 11.4315 13.006 11.2502 13.368 10.8876C13.73 10.525 13.911 10.069 13.911 9.51961C13.911 8.97019 13.7297 8.51447 13.3671 8.15244C13.0046 7.79043 12.5486 7.60943 11.9991 7.60943C11.4497 7.60943 10.994 7.79072 10.632 8.1533C10.27 8.51589 10.089 8.97189 10.089 9.52131C10.089 10.0707 10.2703 10.5264 10.6329 10.8885C10.9954 11.2505 11.4514 11.4315 12.0009 11.4315Z" fill="white"/>
<path d="M6.19137 17.3087C7.10478 16.6747 8.02763 16.1819 8.95992 15.8303C9.8922 15.4788 10.9056 15.303 12 15.303C13.0944 15.303 14.1081 15.4788 15.041 15.8303C15.9739 16.1819 16.9036 16.6747 17.8302 17.3087C18.5011 16.5443 19.0057 15.7216 19.3441 14.8407C19.6824 13.9598 19.8516 13.0138 19.8516 12.0026C19.8516 9.79889 19.0935 7.93891 17.5773 6.42271C16.0611 4.90651 14.202 4.14841 12 4.14841C9.79801 4.14841 7.93891 4.90651 6.42271 6.42271C4.90651 7.93891 4.14841 9.79889 4.14841 12.0026C4.14841 13.0138 4.31922 13.9598 4.66085 14.8407C5.00245 15.7216 5.51263 16.5443 6.19137 17.3087ZM11.9984 12.5799C11.1348 12.5799 10.4093 12.2856 9.8218 11.697C9.23431 11.1085 8.94057 10.3824 8.94057 9.51884C8.94057 8.65528 9.23485 7.92975 9.82341 7.34225C10.412 6.75476 11.138 6.46101 12.0016 6.46101C12.8652 6.46101 13.5907 6.75529 14.1782 7.34385C14.7657 7.93243 15.0594 8.6585 15.0594 9.52205C15.0594 10.3856 14.7652 11.1112 14.1766 11.6986C13.588 12.2861 12.862 12.5799 11.9984 12.5799ZM12.0035 21C10.7619 21 9.5928 20.7637 8.49629 20.2911C7.39978 19.8185 6.44579 19.1752 5.63434 18.3613C4.8229 17.5474 4.18098 16.5947 3.7086 15.5032C3.2362 14.4116 3 13.2428 3 11.9965C3 10.7552 3.2363 9.58786 3.70891 8.49438C4.18152 7.40088 4.82477 6.44797 5.63866 5.63566C6.45256 4.82334 7.40528 4.18098 8.49682 3.7086C9.58835 3.2362 10.7572 3 12.0035 3C13.2448 3 14.4121 3.2363 15.5056 3.70891C16.5991 4.18152 17.552 4.82477 18.3643 5.63866C19.1767 6.45256 19.819 7.40572 20.2914 8.49814C20.7638 9.59055 21 10.7567 21 11.9965C21 13.2381 20.7637 14.4072 20.2911 15.5037C19.8185 16.6002 19.1752 17.5542 18.3613 18.3657C17.5474 19.1771 16.5943 19.819 15.5019 20.2914C14.4094 20.7638 13.2433 21 12.0035 21ZM11.9992 19.8516C12.8753 19.8516 13.7305 19.7126 14.5649 19.4345C15.3993 19.1564 16.1836 18.7228 16.9179 18.1337C16.1836 17.6001 15.4061 17.1863 14.5852 16.8924C13.7643 16.5984 12.9031 16.4514 12.0017 16.4514C11.1003 16.4514 10.2343 16.5941 9.40365 16.8794C8.57299 17.1648 7.80119 17.5829 7.08824 18.1337C7.81841 18.7228 8.60046 19.1564 9.43437 19.4345C10.2683 19.7126 11.1232 19.8516 11.9992 19.8516ZM12.0009 11.4315C12.5503 11.4315 13.006 11.2502 13.368 10.8876C13.73 10.525 13.911 10.069 13.911 9.51961C13.911 8.97019 13.7297 8.51447 13.3671 8.15244C13.0046 7.79043 12.5486 7.60943 11.9991 7.60943C11.4497 7.60943 10.994 7.79072 10.632 8.1533C10.27 8.51589 10.089 8.97189 10.089 9.52131C10.089 10.0707 10.2703 10.5264 10.6329 10.8885C10.9954 11.2505 11.4514 11.4315 12.0009 11.4315Z" fill="#FEF4C0"/>
<path d="M14 9.53027C14 10.6348 13.1046 11.5303 12 11.5303C10.8954 11.5303 10 10.6348 10 9.53027C10 8.4257 10.8954 7.53027 12 7.53027C13.1046 7.53027 14 8.4257 14 9.53027Z" fill="#FEF4C0"/>
<path d="M6.75 17.8011C9.95 14.6011 15.0833 16.4677 17.25 17.8011C15.25 20.3013 9.25 19.8008 8.25 19.3008C7.45 18.9008 6.91667 18.1343 6.75 17.8011Z" fill="#FEF4C0"/>
<path fill-rule="evenodd" clip-rule="evenodd" d="M12 19.8C16.3078 19.8 19.8 16.3078 19.8 12C19.8 7.69218 16.3078 4.2 12 4.2C7.69218 4.2 4.2 7.69218 4.2 12C4.2 16.3078 7.69218 19.8 12 19.8ZM12 21C16.9706 21 21 16.9706 21 12C21 7.02944 16.9706 3 12 3C7.02944 3 3 7.02944 3 12C3 16.9706 7.02944 21 12 21Z" fill="#FF9A00"/>
</svg>
