<svg width="24" height="24" viewBox="0 0 24 24" fill="none" xmlns="http://www.w3.org/2000/svg">
<path d="M15.9645 4.82369C14.585 4.70206 13.5133 5.59186 12.8267 6.5117C12.3884 7.09888 11.525 7.3263 10.9437 6.88022C10.2148 6.32081 9.42809 5.73118 9.07 5.50502C8.35019 5.05039 6.83422 5.35348 5.77343 5.50502C4.71265 5.65656 3.6145 7.77877 3.76604 10.5059C3.87733 12.5086 8.29654 16.5385 11.033 18.7492C11.4335 19.0727 12.0036 19.0626 12.4049 18.74C14.2527 17.2544 17.4482 14.7736 18.0867 14.1618C18.9959 13.2904 20.6625 9.44507 20.3594 8.04332C20.0564 6.64157 18.541 5.05085 15.9645 4.82369Z" fill="#FF9A00"/>
<path d="M11.9612 19.9694C11.7613 19.9694 11.5643 19.9341 11.3701 19.8635C11.1759 19.7928 11.0032 19.6843 10.8519 19.5381L9.5746 18.3756C7.82354 16.7876 6.28024 15.2429 4.94471 13.7415C3.60917 12.2401 2.94141 10.6431 2.94141 8.95042C2.94141 7.61194 3.39334 6.49131 4.2972 5.58854C5.20106 4.68576 6.32304 4.23438 7.66313 4.23438C8.42287 4.23438 9.18006 4.41365 9.9347 4.7722C10.6893 5.13076 11.3679 5.72493 11.9705 6.55471C12.5862 5.72493 13.2676 5.13076 14.015 4.7722C14.7623 4.41365 15.5183 4.23438 16.2828 4.23438C17.621 4.23438 18.7417 4.68576 19.6449 5.58854C20.548 6.49131 20.9996 7.61194 20.9996 8.95042C20.9996 10.6617 20.3183 12.2756 18.9557 13.7919C17.5931 15.3083 16.0633 16.8346 14.3664 18.3709L13.0837 19.5385C12.9298 19.6845 12.7542 19.7928 12.5569 19.8635C12.3595 19.9341 12.161 19.9694 11.9612 19.9694ZM11.3181 7.96874C10.8355 7.16171 10.292 6.56398 9.68756 6.17555C9.08311 5.78712 8.40548 5.59291 7.65466 5.59291C6.69618 5.59291 5.89744 5.91131 5.25844 6.5481C4.61944 7.1849 4.29994 7.98477 4.29994 8.9477C4.29994 9.71997 4.54785 10.5273 5.04366 11.3696C5.53946 12.212 6.16022 13.0493 6.90594 13.8816C7.65168 14.7138 8.4606 15.5271 9.3327 16.3214C10.2048 17.1157 11.0187 17.853 11.7744 18.5334C11.8304 18.5832 11.8958 18.6081 11.9705 18.6081C12.0452 18.6081 12.1106 18.5832 12.1666 18.5334C12.9223 17.853 13.7362 17.1157 14.6083 16.3214C15.4804 15.5271 16.2893 14.7138 17.0351 13.8816C17.7808 13.0493 18.4016 12.212 18.8973 11.3696C19.3932 10.5273 19.6411 9.71997 19.6411 8.9477C19.6411 7.98477 19.3216 7.1849 18.6826 6.5481C18.0436 5.91131 17.2448 5.59291 16.2863 5.59291C15.5355 5.59291 14.8567 5.78712 14.2497 6.17555C13.6428 6.56398 13.0981 7.16171 12.6155 7.96874C12.5397 8.09483 12.444 8.18698 12.3284 8.24518C12.2128 8.30338 12.0926 8.33248 11.968 8.33248C11.8433 8.33248 11.7216 8.30338 11.6029 8.24518C11.4842 8.18698 11.3892 8.09483 11.3181 7.96874Z" fill="#FF9A00"/>
<path d="M10.4384 15.6758C10.5353 15.6758 10.629 15.6509 10.7195 15.601C10.81 15.5512 10.8793 15.4784 10.9274 15.3826L13.503 10.247L14.5461 12.3238C14.5943 12.422 14.6636 12.4961 14.7542 12.5459C14.8447 12.5958 14.939 12.6207 15.0369 12.6207H18.5619C18.7073 12.6207 18.8324 12.5682 18.9372 12.4631C19.0421 12.3581 19.0945 12.2319 19.0945 12.0845C19.0945 11.9371 19.042 11.811 18.9368 11.7061C18.8316 11.6012 18.7062 11.5488 18.5604 11.5488H15.3749L13.9921 8.79278C13.9474 8.70045 13.8802 8.63329 13.7905 8.5913C13.7007 8.54931 13.6061 8.52832 13.5066 8.52832C13.4072 8.52832 13.3116 8.54931 13.2199 8.5913C13.1282 8.63329 13.0595 8.70045 13.0138 8.79278L10.4383 13.9284L9.39508 11.842C9.34692 11.7462 9.27758 11.6734 9.18704 11.6236C9.09651 11.5737 9.00235 11.5488 8.90457 11.5488H5.38446C5.2359 11.5488 5.10913 11.6014 5.00415 11.7066C4.89917 11.8118 4.84668 11.9374 4.84668 12.0832C4.84668 12.2318 4.89917 12.3586 5.00415 12.4634C5.10913 12.5683 5.2359 12.6207 5.38446 12.6207H8.56998L9.9491 15.3826C9.99728 15.4784 10.0666 15.5512 10.1572 15.601C10.2478 15.6509 10.3415 15.6758 10.4384 15.6758Z" fill="#FEF4C0"/>
</svg>
