<svg width="34" height="22" viewBox="0 0 34 22" fill="none" xmlns="http://www.w3.org/2000/svg">
<path d="M16.261 5.82711L16.666 6.1639C16.9194 6.37459 17.116 6.64202 17.2388 6.94303L17.6603 7.97583C17.858 8.46032 17.7741 9.01032 17.4403 9.41858C17.0831 9.85552 17.0141 10.4518 17.2625 10.9548L17.8077 12.0586C17.921 12.2878 17.9798 12.5388 17.9798 12.7931V12.9095C17.9798 13.4989 18.3329 14.0354 18.8834 14.2846C19.6151 14.6159 19.9671 15.4348 19.6925 16.1713L19.6808 16.2028C19.478 16.7466 19.6248 17.3552 20.0552 17.7553C20.3517 18.031 20.5194 18.4122 20.5194 18.8106V19.2961C20.5194 19.7899 20.1834 20.2244 19.6948 20.3626L19.6182 20.3843C19.4419 20.4342 19.2857 20.5356 19.1709 20.6748C18.845 21.07 18.2407 21.1111 17.8611 20.7639L17.3145 20.264C17.0203 19.9949 16.6312 19.8451 16.2269 19.8451H15.1781C14.8684 19.8451 14.5627 19.7771 14.2839 19.6462L13.6171 19.3333C13.3383 19.2024 13.0326 19.1344 12.7229 19.1344H11.574C11.2893 19.1344 11.0077 19.1918 10.7471 19.3031L8.98491 20.0552C8.10498 20.4308 7.07421 20.1638 6.50445 19.4127L6.18146 18.9869C5.79988 18.4838 5.68751 17.8348 5.87877 17.2384L6.02911 16.7697C6.16917 16.333 6.03807 15.857 5.69212 15.5463L5.53912 15.4089C5.19235 15.0974 5.12944 14.5841 5.385 14.1985C5.63453 13.822 5.57571 13.3212 5.24023 13.0138C5.0484 12.8381 4.93969 12.5934 4.93969 12.3375V10.9925C4.93969 10.8642 4.90168 10.7387 4.83019 10.6308C4.64177 10.3465 4.26428 10.2432 3.95049 10.3901L3.80737 10.4572C3.39891 10.6485 2.9075 10.5028 2.67896 10.1228L2.27683 9.45405C2.15386 9.24956 1.88834 9.17282 1.67005 9.2787C1.33731 9.44009 0.954208 9.17402 1.00447 8.81645L1.14424 7.82218C1.16709 7.65959 1.23172 7.50518 1.33218 7.37315L2.1795 6.25953C2.43132 5.92858 2.944 5.93611 3.18536 6.27431L3.24582 6.35902C3.42087 6.6043 3.77555 6.65022 4.01078 6.45806L4.06998 6.4097C4.29208 6.22827 4.28665 5.8948 4.05875 5.72027L4.01625 5.68772C3.79545 5.51862 3.80606 5.19059 4.03736 5.03525C4.14437 4.96339 4.27975 4.9439 4.40366 4.98254L4.80656 5.10816C5.22567 5.23885 5.6727 5.00507 5.79052 4.5936L5.80203 4.55343C5.81316 4.51456 5.8188 4.4744 5.8188 4.43406C5.8188 4.07664 6.23053 3.86441 6.53587 4.06445L9.33279 5.89673C9.49319 6.00181 9.61571 6.15291 9.6832 6.32888L9.8619 6.79476C10.0623 7.31711 10.7973 7.38101 11.0902 6.90153C11.1247 6.84505 11.1677 6.79385 11.2177 6.74962L12.215 5.86754C12.5932 5.53306 13.0865 5.34765 13.5983 5.34765H14.9248C15.4149 5.34765 15.8889 5.51771 16.261 5.82711Z" fill="#FEF4C0" stroke="#FF9A00" stroke-linecap="round"/>
<path d="M29.4587 2.68314L32.7872 3.96125C33.0492 4.06186 33.0749 4.41179 32.8303 4.54741C32.7982 4.56517 32.7694 4.58793 32.745 4.61477L31.7834 5.67195C31.5185 5.96326 31.3471 6.32339 31.2905 6.70798L31.2582 6.92732C31.1843 7.4289 30.93 7.91284 30.4581 8.13014C30.3004 8.20277 30.145 8.25315 30.0195 8.25315C29.7966 8.25315 29.2884 8.09426 28.8388 7.93408C28.4462 7.79422 28.0198 7.74956 27.6189 7.86487C27.2638 7.96697 26.8666 8.10322 26.6016 8.25315C26.4846 8.31937 26.3904 8.42604 26.3151 8.55454C25.9434 9.18898 25.5327 9.88141 24.8052 10.0671L24.7757 10.0747C24.4417 10.1599 24.1461 10.3499 23.9349 10.615L23.5099 11.1486C23.4814 11.1844 23.4373 11.2054 23.3907 11.2054C23.2763 11.2054 23.2037 11.3241 23.2584 11.4215L23.5958 12.0214C23.6622 12.1395 23.6818 12.2769 23.6511 12.408L23.5157 12.9859C23.4818 13.1307 23.4647 13.2787 23.4647 13.4273V14.7517C23.4647 14.8993 23.436 15.0456 23.3803 15.183C23.1057 15.859 23.5222 16.6124 24.2546 16.7647L25.1943 16.96C25.3752 16.9976 25.5319 17.1063 25.6272 17.2602C25.8419 17.6074 25.6796 18.0584 25.2889 18.2005L24.9786 18.3133C24.7031 18.4136 24.4915 18.6326 24.4064 18.9058L24.3218 19.1772C24.0992 19.8917 23.3656 20.3359 22.6061 20.2162L21.5745 20.0536C20.7564 19.9246 20.1459 19.2754 20.1872 18.4724C20.2191 17.8537 19.371 17.3667 18.7521 17.1235C18.5577 17.0471 18.3482 17.019 18.1384 17.019H17.2065C17.0756 17.019 16.9492 17.065 16.8507 17.1486C16.5641 17.3919 16.1151 17.279 15.9863 16.9314L15.4649 15.5239C15.2853 15.039 15.3668 14.4992 15.6822 14.0847L16.5808 12.9037C16.6128 12.8616 16.6487 12.8225 16.6881 12.7868L16.6979 12.778C17.0474 12.4615 17.0657 11.9299 16.7387 11.5915C16.6661 11.5164 16.608 11.4292 16.5701 11.3331C16.3651 10.8136 16.0841 9.95012 16.2543 9.75197C16.3008 9.69779 16.3734 9.61632 16.4605 9.51982C16.9865 8.93689 17.131 8.11523 16.8181 7.40246L16.7086 7.15321C16.4267 6.51104 16.5033 5.76518 16.9691 5.23321C17.0934 5.0912 17.218 4.95653 17.3312 4.84675C17.632 4.5549 19.0808 4.20444 20.173 3.98367C20.6109 3.89517 20.9673 3.58338 21.0902 3.1662L21.3495 2.28597C21.4792 1.84545 22.049 1.70221 22.383 2.02616C22.6381 2.27366 23.0565 2.25807 23.2913 1.99233L23.9306 1.26875C24.2501 0.907135 24.8281 0.911029 25.1424 1.27691C25.3459 1.51376 25.6754 1.60995 25.9798 1.52136L26.607 1.33884C27.333 1.12757 28.1173 1.38417 28.5631 1.97878L28.6162 2.04954C28.8294 2.33396 29.1216 2.5537 29.4587 2.68314Z" fill="#FEF4C0" stroke="#FF9A00" stroke-linecap="round"/>
</svg>
