<svg width="22" height="20" viewBox="0 0 22 20" fill="none" xmlns="http://www.w3.org/2000/svg">
<path d="M16.3628 9.32742C15.9888 9.06698 13.7222 4.23669 12.3578 1.24834C12.2106 0.926083 11.7757 0.915138 11.6129 1.22907C11.5798 1.29282 11.5625 1.36418 11.5625 1.43668V1.50056C11.5625 1.78185 11.3986 2.03481 11.1485 2.13928L10.5685 2.38164C10.3306 2.48102 10.1328 2.663 10.0084 2.89692C9.81192 3.26632 9.43916 3.49543 9.03459 3.49543H8.04424C7.92093 3.49543 7.80267 3.54659 7.71548 3.63767C7.62828 3.72875 7.51002 3.77991 7.38671 3.77991H7.3779C7.22594 3.77991 7.08273 3.70571 6.99078 3.57934L6.84816 3.38332C6.62846 3.08137 6.26465 2.93445 5.90764 3.00351L5.57066 3.06869L1.52233 3.29995C1.33015 3.31093 1.15729 3.42558 1.06604 3.60259C1.00685 3.71741 0.986635 3.84979 1.00869 3.97815L1.16363 4.87982C1.19217 5.04591 1.33052 5.16679 1.49206 5.16679H1.60774C1.72814 5.16679 1.82575 5.26874 1.82575 5.39451C1.82575 5.50849 1.90642 5.60491 2.01456 5.62017L3.0854 5.77133C3.48879 5.77133 3.84366 6.0497 3.95613 6.45434L4.01885 6.68C4.05452 6.80833 4.1095 6.92991 4.18174 7.04019L4.38626 7.35242C4.73401 7.88331 4.75071 8.57806 4.4289 9.1265C4.35071 9.25976 4.29126 9.40406 4.25236 9.55497L4.1042 10.1298C4.08329 10.2109 4.07269 10.2946 4.07269 10.3786C4.07269 10.574 4.12996 10.7647 4.23679 10.9251L4.38452 11.147C4.53771 11.377 4.7397 11.5669 4.97474 11.7019L6.61275 12.643C6.64426 12.6611 6.6743 12.6818 6.70258 12.705L6.73981 12.7356C6.96961 12.9242 7.03728 13.2575 6.90055 13.5273C6.85443 13.6183 6.83032 13.7197 6.83032 13.8226V14.2967C6.83032 14.5511 6.72514 14.7933 6.54178 14.9608C6.37741 15.1111 6.27512 15.3219 6.25636 15.5492L6.14553 16.8922C6.12667 17.1207 6.21742 17.3441 6.38785 17.4888C6.55815 17.6333 6.7859 17.6804 6.99607 17.6145L7.09325 17.5841C7.25479 17.5335 7.39836 17.434 7.50589 17.2983L7.67648 17.083C7.94159 16.7484 8.41724 16.7043 8.73468 16.9848C8.92719 17.155 9.18889 17.2122 9.43058 17.137L9.87661 16.9982C10.3389 16.8544 10.8383 17.0216 11.1345 17.4193C11.2802 17.615 11.4795 17.7598 11.7058 17.8345L12.0051 17.9332L14.4514 18.8796C14.6573 18.9592 14.8751 19 15.0947 19C15.2809 19 15.4659 18.9707 15.6437 18.9131L16.1863 18.7372C16.3037 18.6991 16.4243 18.6723 16.5464 18.6572L18.1999 18.4523C18.3119 18.4384 18.4176 18.3909 18.5042 18.3155C18.6733 18.1683 18.9074 18.1333 19.1093 18.225L19.3655 18.3413C19.4958 18.4005 19.6364 18.431 19.7784 18.431H20.2298C20.351 18.431 20.4706 18.4015 20.5791 18.3449C20.8858 18.1847 21.0587 17.8338 20.9818 17.4847C20.8531 16.9005 20.6502 16.2033 20.4141 15.9773C20.1058 15.6821 18.8237 12.8946 18.1174 11.3062C18.0371 11.1256 17.9341 10.9579 17.8071 10.8095C17.3852 10.3168 16.7122 9.57071 16.3628 9.32742Z" fill="#FEF4C0" stroke="#FF9A00" stroke-linecap="round"/>
</svg>
