<svg width="18" height="22" viewBox="0 0 18 22" fill="none" xmlns="http://www.w3.org/2000/svg">
<path d="M2.34407 7.71067C2.09723 7.99605 1.78782 8.30494 1.54979 8.408C1.51162 8.42453 1.46994 8.42956 1.42826 8.42956C1.19174 8.42956 1 8.61894 1 8.85255V9.23313C1 9.76189 1.50828 10.144 2.0347 10.0478C2.27503 10.0039 2.49954 9.97297 2.65195 9.97297C2.97281 9.97297 3.65296 10.9141 4.11854 11.6434C4.30327 11.9328 4.39319 12.2699 4.39319 12.612V12.8064C4.39319 13.1134 4.2888 13.4115 4.09675 13.6529L3.81115 14.0119C3.57719 14.306 3.58092 14.721 3.82012 15.011C4.12552 15.3812 4.03644 15.9315 3.62942 16.1892L2.99839 16.5887C2.79655 16.7165 2.71309 16.9666 2.79844 17.1879C2.90912 17.4749 3.25302 17.5965 3.52295 17.4441L3.62183 17.3883C3.80977 17.2822 4.04769 17.3246 4.18627 17.4889C4.30973 17.6352 4.3241 17.8433 4.22188 18.0048L4.0305 18.3073C3.97575 18.3938 3.94672 18.4938 3.94672 18.5958C3.94672 18.8206 4.08665 19.0224 4.29893 19.1035L4.76699 19.2825C5.03661 19.3856 5.11504 19.7253 4.9173 19.9336C4.77241 20.0863 4.76997 20.3231 4.91169 20.4786L4.93169 20.5006C5.01521 20.5922 5.13418 20.6446 5.25903 20.6446H6.49161H8.96332C9.18625 20.6446 9.40475 20.7061 9.59416 20.8222C10.151 21.1636 10.8823 20.9988 11.2342 20.4527L11.4584 20.1047C11.707 19.7189 12.111 19.4567 12.5682 19.3844L14.1347 19.1368C14.7646 19.0373 15.2522 18.5389 15.3313 17.9137L15.374 17.5769C15.4036 17.3429 15.5438 17.1368 15.7518 17.0212C15.9888 16.8896 16.1354 16.6419 16.1354 16.3734V14.731C16.1354 14.4017 16.2964 14.0927 16.5677 13.9014C16.8786 13.682 17.0414 13.311 16.9909 12.9369L16.9242 12.4429C16.849 11.8853 16.5206 11.3919 16.0322 11.1024L15.9122 11.0313L14.6304 10.4112C14.0574 10.134 13.6418 9.616 13.4997 9.00166L13.4649 8.85126C13.4005 8.57308 13.3945 8.28482 13.4474 8.00428L13.6787 6.776C13.7087 6.61726 13.7819 6.46959 13.8905 6.34891C14.2005 6.0044 14.1918 5.48277 13.8703 5.14859L12.9625 4.2047C12.8173 4.0538 12.7067 3.87389 12.638 3.67713L12.6232 3.6347C12.4272 3.07351 11.8924 2.69689 11.2914 2.69689C10.7122 2.69689 10.2151 2.33249 9.91335 1.84415C9.7786 1.62606 9.63918 1.46216 9.52762 1.46216C8.98912 1.46216 8.56179 0.814642 8.08015 1.0525L7.54567 1.31645C7.35216 1.41201 7.18474 1.5536 7.07512 1.73783C6.86725 2.08715 6.59956 2.61396 6.49161 3.09377C6.35918 3.68236 4.96345 4.569 4.13198 5.02322C4.01061 5.08953 3.87422 5.12225 3.73553 5.12225C3.31701 5.12225 2.96048 5.42252 2.89436 5.8307L2.73027 6.84365C2.67878 7.16147 2.55574 7.46594 2.34407 7.71067Z" fill="#FEF4C0" stroke="#FF9A00" stroke-linecap="round"/>
</svg>
