<svg width="22" height="30" viewBox="0 0 22 30" fill="none" xmlns="http://www.w3.org/2000/svg">
<path d="M2.30172 16.6761L2.72609 16.3729C3.25157 15.9975 3.92803 15.8986 4.54028 16.1078L5.34083 16.3812C5.67482 16.4953 5.97227 16.6954 6.20276 16.961L6.75724 17.6C6.91973 17.7872 6.99276 18.035 6.95754 18.2796C6.88637 18.7739 7.25496 19.2235 7.75719 19.255L10.0889 19.4011C10.2865 19.4135 10.4811 19.455 10.6664 19.5243L12.3013 20.1356C12.7358 20.2981 13.214 20.3049 13.6531 20.155L16.4601 19.1966L17.7755 18.7905C17.9951 18.7228 18.2332 18.8087 18.3576 19.0007C18.4381 19.1251 18.5694 19.2084 18.717 19.2288L19.5034 19.3377C19.8559 19.3865 20.1352 19.6578 20.1919 20.0065C20.247 20.3455 20.0792 20.6818 19.7742 20.8439L19.6277 20.9218C19.3764 21.0554 19.1911 21.2852 19.1148 21.5577L18.6002 23.3961C18.5254 23.6632 18.3593 23.8963 18.1304 24.0553C17.8764 24.2317 17.7008 24.4984 17.64 24.8L17.6018 24.9895C17.4968 25.5107 17.1489 25.9516 16.6643 26.1779L16.0591 26.4605C15.7149 26.6212 15.3216 26.6443 14.9607 26.5249L14.6313 26.416C14.4129 26.3437 14.1733 26.3739 13.98 26.498C13.7722 26.6314 13.5119 26.6558 13.2827 26.5632L12.1114 26.0905C11.6757 25.9146 11.1912 25.8972 10.7438 26.0415L10.5717 26.097C10.1598 26.2298 9.80277 26.4921 9.55443 26.8441L9.13092 27.4445C8.97037 27.672 8.76333 27.8635 8.52327 28.0064L7.08297 28.864C6.80528 29.0293 6.46239 29.0449 6.17061 28.9055L6.0402 28.8432C5.78692 28.7222 5.62588 28.4679 5.62588 28.1889V28.1808C5.62588 28.1188 5.6346 28.057 5.6518 27.9973L5.71192 27.7884C5.78694 27.5279 5.62318 27.259 5.35585 27.2037C5.12441 27.1559 4.89317 27.2861 4.81584 27.5078L4.76462 27.6546C4.67428 27.9136 4.42845 28.0872 4.15227 28.0872H3.73674C3.41011 28.0872 3.09685 27.9585 2.86589 27.7293L2.66095 27.526C2.51417 27.3803 2.39202 27.2121 2.29919 27.0279L1.26677 24.979C1.05566 24.5601 1.00119 24.0804 1.11304 23.6253L1.2579 23.036C1.29562 22.8825 1.31468 22.7251 1.31468 22.5671V21.1266C1.31468 20.9606 1.25937 20.7992 1.15735 20.6676C1.01955 20.4899 0.968787 20.2604 1.01887 20.0417L1.5224 17.8433C1.63012 17.373 1.90726 16.9579 2.30172 16.6761Z" fill="#FEF4C0" stroke="#FF9A00" stroke-linecap="round"/>
<path d="M19.4274 2.1977L19.0892 1.35248C18.9468 0.996518 18.4925 0.885256 18.1988 1.1344C18.0967 1.221 17.9666 1.2686 17.8321 1.2686H17.4384C17.3352 1.2686 17.2326 1.25214 17.1347 1.21984C16.8835 1.137 16.6089 1.16045 16.3758 1.28465L16.1485 1.40578C15.9215 1.52672 15.6677 1.59003 15.4099 1.59003H14.7552C14.6596 1.59003 14.564 1.59675 14.4693 1.61013L13.4904 1.7485C13.3958 1.76188 13.3002 1.7686 13.2046 1.7686H13.0026C12.6611 1.7686 12.3251 1.85421 12.0261 2.01745L11.9237 2.07339C11.604 2.24789 11.3381 2.50479 11.1541 2.8168L10.5601 3.8245C10.4713 3.97501 10.4246 4.14613 10.4246 4.32038V4.47083C10.4246 4.79892 10.215 5.09118 9.90205 5.19957C9.77149 5.24478 9.63113 5.25484 9.49535 5.22872L8.72446 5.0804C8.51172 5.03947 8.29373 5.03266 8.07881 5.06023L7.1189 5.18335C6.71742 5.23484 6.38807 5.52299 6.28725 5.91094C6.19099 6.28133 5.88571 6.56244 5.50543 6.63085L5.01854 6.71844C4.71564 6.77294 4.45211 6.95607 4.29752 7.21951L4.10805 7.54238C3.98036 7.75997 4.01665 8.03535 4.19646 8.21326C4.30162 8.31731 4.36069 8.45842 4.36069 8.60556V9.26862V10.0779C4.36069 10.1806 4.34435 10.2827 4.31226 10.3804L4.22927 10.633C4.06254 11.1406 4.44495 11.6615 4.9844 11.6615C5.34107 11.6615 5.65397 11.8968 5.74943 12.2368L5.78003 12.3458C5.88223 12.7099 5.75282 13.099 5.45212 13.3319L5.33616 13.4216C5.19315 13.5324 5.07829 13.6747 5.00075 13.8372L4.66042 14.5503C4.2451 15.4205 4.66409 16.4566 5.57148 16.8031C5.81949 16.8978 6.04114 17.0496 6.21809 17.2459L6.83311 17.9282C7.02609 18.1423 7.10492 18.4343 7.04552 18.7151C6.92673 19.2767 7.35991 19.8044 7.93979 19.8044H10.3144C10.5778 19.8044 10.8387 19.8553 11.0823 19.9543L12.0461 20.346C12.4905 20.5266 12.9855 20.5447 13.4421 20.3969L14.4472 20.0718C14.5566 20.0364 14.6688 20.0104 14.7826 19.9939L15.7726 19.8505C15.9768 19.821 16.1609 19.7127 16.2848 19.5493C16.3708 19.4358 16.4867 19.3479 16.6198 19.2952L17.5298 18.9351C17.8171 18.8213 18.1443 18.9477 18.2779 19.2239C18.3755 19.4258 18.5816 19.5544 18.8078 19.5544H19.1054C19.4752 19.5544 19.8182 19.3636 20.0105 19.051L20.1138 18.8831C20.1752 18.7834 20.2237 18.6764 20.2581 18.5647L20.9644 16.2777C20.9882 16.2006 21.0003 16.1206 21.0003 16.04V15.583C21.0003 15.1481 20.519 14.8811 20.144 15.1078C19.8937 15.2592 19.5679 15.1949 19.3954 14.9602L19.3336 14.8761C19.2021 14.6971 19.1684 14.4654 19.2436 14.257L19.3962 13.834C19.4483 13.6899 19.3965 13.5292 19.2698 13.4415C19.178 13.3779 19.1234 13.274 19.1234 13.1632V10.7108C19.1234 10.5327 19.2403 10.3753 19.4121 10.3222C19.5839 10.2691 19.7009 10.1117 19.7009 9.93357V8.47229C19.7009 8.41898 19.6572 8.37576 19.6033 8.37576C19.5418 8.37576 19.4956 8.32003 19.5077 8.26029L19.6448 7.58201C19.6806 7.40463 19.7881 7.24941 19.9423 7.15229L20.0482 7.08564C20.3265 6.91043 20.495 6.60669 20.495 6.28034V6.15237C20.495 5.99339 20.4627 5.83602 20.4001 5.68961L19.8102 4.31003C19.7377 4.14037 19.6892 3.96161 19.6661 3.77882L19.5035 2.49193C19.4908 2.39107 19.4652 2.29221 19.4274 2.1977Z" fill="#FEF4C0" stroke="#FF9A00" stroke-linecap="round"/>
</svg>
