<svg width="16" height="22" viewBox="0 0 16 22" fill="none" xmlns="http://www.w3.org/2000/svg">
<path d="M7 3.06063C6.06659 1.5648 4.2693 1.07804 2.76916 1.00225C1.74015 0.950267 1 1.80535 1 2.77924V3.06063L1.74041 12.724C1.76497 13.0445 1.86981 13.355 2.04628 13.6297L6.15454 20.0247C6.83416 21.0826 8.3495 21.323 9.3574 20.5328L13.4621 17.3147C13.7794 17.066 13.963 16.6966 13.963 16.3071C13.963 16.0904 14.0199 15.8771 14.1285 15.6863L14.7436 14.6068C14.9119 14.3114 15 13.9812 15 13.6457V12.9939C15 12.5237 14.8271 12.0681 14.5108 11.7052L14.447 11.632C14.1341 11.2728 13.963 10.8221 13.963 10.3569C13.963 9.65238 13.5697 9.00379 12.9208 8.65687C12.6843 8.5304 12.4036 8.38093 12.0741 8.2062C10.5556 7.40112 8.7037 5.7909 7 3.06063Z" fill="#FEF4C0" stroke="#FF9A00"/>
</svg>
