<svg width="22" height="12" viewBox="0 0 22 12" fill="none" xmlns="http://www.w3.org/2000/svg">
<path d="M3.26428 10.8327L3.385 10.8574C3.83694 10.9497 4.3087 10.8935 4.72227 10.6982L5.12905 10.5061C5.61724 10.2756 6.18315 10.2403 6.69915 10.4084L8.19384 10.8952C8.40681 10.9646 8.63053 11 8.85581 11H10.886C11.3426 11 11.7859 10.8546 12.1443 10.5874L13.7202 9.41227C14.0136 9.19346 14.3653 9.05541 14.7365 9.01333L17.7079 8.67655C18.3287 8.60618 18.8806 8.26955 19.204 7.76402L20.71 5.40956C21.0844 4.82428 21.1055 4.0921 20.7195 3.51358C20.1202 2.61524 19.3109 1.55861 18.6916 1.21742C17.8233 0.738972 14.8021 1.16046 13.4001 1.43101C11.1839 1.8582 6.42604 2.84073 5.1235 3.35336C4.10697 3.75342 2.51013 5.48042 1.39927 6.82871C0.901689 7.43263 0.872698 8.26258 1.29262 8.91702L1.95681 9.95215C2.24602 10.4029 2.71887 10.7214 3.26428 10.8327Z" fill="#FEF4C0" stroke="#FF9A00"/>
</svg>
