<svg width="26" height="30" viewBox="0 0 26 30" fill="none" xmlns="http://www.w3.org/2000/svg">
<path d="M19.5809 20.4655L19.7675 20.4109C21.0494 20.036 21.6535 18.5563 21.0054 17.3791L20.1326 15.7938C19.9905 15.5358 19.916 15.2456 19.916 14.9504V14.7778C19.916 14.3277 19.7014 13.905 19.3393 13.6419C19.0245 13.4132 18.6291 13.3279 18.2491 13.4069L17.3892 13.5855L14.9447 14.1269C14.3606 14.2563 13.7862 13.8727 13.676 13.2797C13.6397 13.0841 13.55 12.9027 13.4171 12.7558L13.1519 12.4627C12.8979 12.182 12.4885 12.1087 12.1542 12.2841C11.8504 12.4435 11.4808 12.3986 11.2231 12.1711L10.8139 11.8098C10.4808 11.5157 10.0231 11.411 9.59683 11.5314C9.3443 11.6028 9.11877 11.7489 8.94937 11.9509L8.88667 12.0257C8.78819 12.1431 8.67385 12.246 8.54701 12.3313L7.62024 12.9547C7.12801 13.2859 6.45902 13.0946 6.21204 12.5522L6.14767 12.4109C6.02994 12.1523 5.77378 11.9866 5.4918 11.9866C5.18011 11.9866 4.90363 12.1885 4.80619 12.4872L4.08532 14.6974C3.93692 15.1523 3.94739 15.6449 4.11498 16.093L4.38456 16.8138C4.5773 17.3292 4.39761 17.9107 3.94878 18.2243L3.75783 18.3577C3.65515 18.4294 3.58028 18.5348 3.54597 18.656C3.42506 19.083 3.8378 19.4717 4.27148 19.396C4.44991 19.3648 4.60861 19.3528 4.71252 19.3761C4.89986 19.4181 4.90699 19.8982 4.85492 20.4075C4.80131 20.9318 5.08638 21.4464 5.58196 21.6131L5.63726 21.6317C5.70555 21.6547 5.77705 21.6664 5.84903 21.6664H5.89621C6.0194 21.6664 6.13885 21.7091 6.23449 21.7875L6.30583 21.8459C6.49123 21.9978 6.52355 22.2708 6.37883 22.4624L6.15481 22.8129C6.10983 22.8833 6.07941 22.9621 6.06539 23.0446C6.00533 23.3982 5.66205 23.6273 5.31708 23.5406C4.39808 23.3097 3.25642 23.0022 3.25642 22.9195C3.25642 22.3987 2.69623 23.7182 2.88388 24.2034L2.91601 24.2865C3.12077 24.8159 2.9786 25.4179 2.55923 25.7973L1.2615 26.9713C0.978357 27.2274 0.917394 27.6513 1.1167 27.9781C1.31457 28.3025 1.71299 28.4393 2.06591 28.304L2.79247 28.0254C3.30022 27.8308 3.68753 27.4063 3.83792 26.8796L4.26714 25.3765C4.30264 25.2522 4.41537 25.1666 4.54357 25.1666C4.64787 25.1666 4.74401 25.2236 4.79481 25.3155L5.74183 27.0289C5.87339 27.267 5.86882 27.5578 5.72985 27.7915C5.62689 27.9646 5.59632 28.1719 5.64485 28.3678L5.65284 28.4001C5.70839 28.6243 5.85825 28.8128 6.0631 28.9161C6.41698 29.0947 6.84724 28.9794 7.06671 28.6472L7.45342 28.0619L8.60275 26.7089C8.69017 26.606 8.73822 26.4749 8.73822 26.3394V26.1389C8.73822 25.9361 8.9012 25.7716 9.10225 25.7716C9.30329 25.7716 9.46627 25.9361 9.46627 26.1389V27.1199C9.46627 27.3018 9.56204 27.4701 9.71779 27.5617C9.87933 27.6568 10.0798 27.6547 10.2323 27.5455C10.4749 27.3719 10.8237 27.1004 11.1793 26.7655C11.3476 26.607 11.4623 26.3948 11.5385 26.1658C11.7924 25.4027 12.074 24.5829 12.7404 24.1405L14.6838 22.8505C14.8308 22.7529 14.9896 22.6745 15.1562 22.6173L16.7033 22.0859C16.8461 22.0368 16.9831 21.9722 17.112 21.8933L19.081 20.687C19.2372 20.5913 19.4053 20.5168 19.5809 20.4655Z" fill="#FEF4C0" stroke="#FF9A00" stroke-linecap="round"/>
<path d="M22.2176 2.8003L23.6656 2.98293C24.3293 3.06665 24.7236 3.76774 24.4503 4.37835C24.3663 4.56602 24.226 4.72192 24.0527 4.83265C23.4493 5.2183 22.5219 5.88978 22.1893 6.42683C21.839 6.99235 21.1721 9.14423 20.7966 10.4435C20.7333 10.6625 20.8449 10.8933 21.055 10.9816C21.1891 11.038 21.288 11.1553 21.3194 11.2974C21.4237 11.7701 21.575 12.4999 21.6078 12.8315C21.6276 13.0314 21.4711 13.4612 21.2701 13.9121C20.9734 14.5777 20.1719 14.8204 19.5213 14.4922C19.3321 14.3968 19.1233 14.3471 18.9114 14.3471H18.4825C18.3096 14.3471 18.1415 14.4035 18.0036 14.5078C17.889 14.5946 17.753 14.6486 17.6101 14.664L13.7584 15.0804C13.3593 15.0804 13.0832 14.6825 13.2112 14.3044C13.2569 14.1695 13.2969 14.0457 13.3223 13.9559C13.4192 13.6137 12.9347 12.3426 12.5955 12.3426C11.8863 12.3426 11.184 12.8714 10.6605 12.3928L10.6364 12.3708C10.3217 12.083 9.87313 11.9938 9.47227 12.1394L9.3542 12.1823C9.06847 12.2861 8.8253 12.4825 8.67108 12.7445C8.49691 13.0404 8.28686 13.4107 8.13783 13.7115C8.02957 13.93 7.67215 14.1216 7.2542 14.2755C6.44602 14.5732 5.58613 14.1282 5.17943 13.369L4.9481 12.9372C4.91098 12.8679 4.8565 12.8094 4.79001 12.7675C4.49241 12.5798 4.51197 12.1396 4.82504 11.9791L6.7986 10.9671C6.96635 10.8811 7.07186 10.7084 7.07186 10.5199C7.07186 10.08 6.54009 9.84557 6.19901 10.1234C6.08274 10.2181 5.96747 10.3085 5.86053 10.3869C5.62625 10.5589 5.40074 10.2565 5.22099 9.83832C4.94708 9.20109 5.19546 8.48045 5.69477 7.99903L6.62487 7.10226C6.89368 6.84307 7.29516 6.77801 7.63207 6.93904L8.05287 7.14016C8.45178 7.33082 8.91308 7.04002 8.91308 6.59789C8.91308 6.48607 8.88135 6.3756 8.82246 6.28054C8.61862 5.95145 8.76137 5.51459 9.10401 5.33446C9.62559 5.06024 10.1508 4.69271 10.1244 4.37343C10.1046 4.13347 9.97415 4.08776 9.82117 4.12653C9.50667 4.20625 9.23249 4.41188 8.91649 4.48546L8.21663 4.64843C8.16427 4.66062 8.11068 4.66678 8.05692 4.66678C7.51312 4.66678 7.1745 4.07665 7.4489 3.60716L7.78245 3.03647C7.88791 2.85605 8.04329 2.70997 8.22987 2.61584L10.6755 1.38199C11.1594 1.13785 11.7217 1.10057 12.2336 1.27868L13.9237 1.86673C14.135 1.94026 14.3572 1.97781 14.5809 1.97781H16.5267C16.9574 1.97781 17.3708 2.14665 17.6784 2.44809L18.0314 2.79413C18.5032 3.25654 19.2643 3.23582 19.7102 2.74841C19.9313 2.50663 20.2439 2.36893 20.5716 2.36893H20.8488C21.1232 2.36893 21.3922 2.44564 21.6253 2.5904C21.8053 2.70218 22.0074 2.77378 22.2176 2.8003Z" fill="#FEF4C0" stroke="#FF9A00" stroke-linecap="round"/>
</svg>
