<svg width="22" height="20" viewBox="0 0 22 20" fill="none" xmlns="http://www.w3.org/2000/svg">
<path d="M11.9375 2.14602C11.7442 2.58577 11.5052 3.13041 11.289 3.62362C11.037 4.19826 10.3349 4.39403 9.83306 4.02949C9.4639 3.76132 8.96289 3.78787 8.62493 4.09612C8.21343 4.47144 7.76526 4.88527 7.60378 5.05057C7.29422 5.36743 6.36557 7.11016 5.28214 7.69107C4.1987 8.27198 2.9605 7.16297 2.34139 7.11016C1.72229 7.05735 1 9.11694 1 9.59223C1 9.92756 1.45474 11.1637 1.76268 11.9461C1.83771 12.1367 1.88653 12.3363 1.907 12.5408C2.00585 13.5281 2.19306 15.1422 2.34139 15.5598C2.54776 16.1407 4.40507 15.2957 4.76622 15.2957C5.12736 15.2957 6.36557 18.2531 6.8299 18.5699C7.09755 18.7526 8.05982 18.8548 8.87912 18.9043C9.41636 18.9367 9.93318 18.7203 10.3453 18.366C10.8573 17.9259 11.4948 17.4441 11.9375 17.3025C12.4936 17.1246 13.113 17.6332 13.4694 18.0401C13.5887 18.1763 13.7097 18.3123 13.856 18.4173C14.3186 18.7492 15.0431 19.1552 15.3942 18.9396C15.9101 18.6227 18.7476 17.1969 19.6763 16.5632C20.605 15.9294 20.5534 14.1339 20.7597 13.6058C20.9661 13.0777 21.3788 10.5428 20.1922 10.8069C19.0056 11.0709 18.1285 10.2788 18.1285 8.85289C18.1285 7.42702 18.3349 5.94834 18.1285 5.05057C18.0279 4.61275 17.9349 3.77329 17.866 3.00113C17.7962 2.21904 17.3243 1.5056 16.5746 1.33857C16.1377 1.24122 15.6949 1.19844 15.3942 1.30106C15.1014 1.40096 14.697 1.32368 14.3011 1.18094C13.5753 0.919207 12.7333 0.872089 12.2898 1.5158C12.1624 1.70062 12.0408 1.91107 11.9375 2.14602Z" fill="#FEF4C0" stroke="#FF9A00" stroke-linecap="round"/>
</svg>
