<svg width="86" height="86" viewBox="0 0 86 86" fill="none" xmlns="http://www.w3.org/2000/svg">
<path d="M35 41.5625H54V61H35V41.5625Z" fill="#3B2F2F"/>
<path fill-rule="evenodd" clip-rule="evenodd" d="M37.5312 44.7503C37.6771 46.5107 36.8438 50.4941 32.3438 52.3441C33.552 53.5524 37.3121 55.944 42.687 55.8441C48.0619 55.944 51.8221 53.5524 53.0303 52.3441C48.5303 50.4941 47.6969 46.5107 47.8428 44.7503C45.9177 42.1005 43.6036 44.8333 42.687 46.5312C41.7704 44.8333 39.4564 42.1005 37.5312 44.7503Z" fill="#E4B4A4"/>
<path fill-rule="evenodd" clip-rule="evenodd" d="M37.5312 44.7503C37.6771 46.5107 36.8438 50.4941 32.3438 52.3441C33.552 53.5524 37.3121 55.944 42.687 55.8441C48.0619 55.944 51.8221 53.5524 53.0303 52.3441C48.5303 50.4941 47.6969 46.5107 47.8428 44.7503C45.9177 42.1005 43.6036 44.8333 42.687 46.5312C41.7704 44.8333 39.4564 42.1005 37.5312 44.7503Z" fill="black" fill-opacity="0.2"/>
<path fill-rule="evenodd" clip-rule="evenodd" d="M32.8516 52.3438C30.6224 52.6591 25.6 54.1354 23.5 56.9264C21.4 59.7174 19.9375 66.6098 19.5 70C23.25 72.9566 33.2375 79.3608 42.9375 78.9824C52.6375 79.3608 62.5625 72.9566 66.3125 70C65.875 66.6098 64.475 59.7174 62.375 56.9264C60.275 54.1354 55.2526 52.6591 53.0234 52.3438C49.2734 55.2294 44.75 55.665 42.9375 55.6255C41.125 55.665 36.6016 55.2294 32.8516 52.3438Z" fill="#773F58"/>
<path fill-rule="evenodd" clip-rule="evenodd" d="M32.8516 52.3438C30.6224 52.6591 25.6 54.1354 23.5 56.9264C21.4 59.7174 19.9375 66.6098 19.5 70C23.25 72.9566 33.2375 79.3608 42.9375 78.9824C52.6375 79.3608 62.5625 72.9566 66.3125 70C65.875 66.6098 64.475 59.7174 62.375 56.9264C60.275 54.1354 55.2526 52.6591 53.0234 52.3438C49.2734 55.2294 44.75 55.665 42.9375 55.6255C41.125 55.665 36.6016 55.2294 32.8516 52.3438Z" fill="black" fill-opacity="0.2"/>
<path fill-rule="evenodd" clip-rule="evenodd" d="M43.0005 47.9996C43.0007 47.9997 43.0008 47.9997 43.001 47.9998V47.9995C47.6004 46.9491 50.6668 41.9579 51.5105 39.5935C52.1876 38.4268 53.2793 35.0748 52.2293 30.9998C51.1793 26.925 45.6153 25.9686 43.0005 25.9998C40.3857 25.9686 34.8217 26.925 33.7717 30.9998C32.7217 35.0748 33.8134 38.4268 34.4905 39.5935C35.3342 41.9579 38.4005 46.9491 43 47.9995V47.9998C43.0002 47.9997 43.0003 47.9997 43.0005 47.9996Z" fill="#FDCDB7"/>
<path fill-rule="evenodd" clip-rule="evenodd" d="M43.0005 47.9996C43.0007 47.9997 43.0008 47.9997 43.001 47.9998V47.9995C47.6004 46.9491 50.6668 41.9579 51.5105 39.5935C52.1876 38.4268 53.2793 35.0748 52.2293 30.9998C51.1793 26.925 45.6153 25.9686 43.0005 25.9998C40.3857 25.9686 34.8217 26.925 33.7717 30.9998C32.7217 35.0748 33.8134 38.4268 34.4905 39.5935C35.3342 41.9579 38.4005 46.9491 43 47.9995V47.9998C43.0002 47.9997 43.0003 47.9997 43.0005 47.9996Z" fill="black" fill-opacity="0.2"/>
<path fill-rule="evenodd" clip-rule="evenodd" d="M45.5187 27.7035C44.2564 28.9807 41.4846 31.4221 39.4377 32C37.3127 32.6 36.2607 32.7708 36.0002 32.7812C35.6565 34.6458 34.9752 38.4375 35.0002 38.6875C35.0073 38.7583 35.1813 39.0804 35.4375 39.5545C36.3117 41.1723 38.1426 44.5608 37.563 45.7812C36.7435 47.5069 35.0315 52.25 35.0002 53.375C34.9928 53.6424 35.0419 54.0669 35.1034 54.5991C35.3008 56.3058 35.6261 59.1193 34.6255 61.4062C33.5755 63.8063 30.4378 65.9062 29.0001 66.6562C29.698 66.0625 30.8001 64.0312 29.6251 60.6562C29.4546 60.1664 29.2941 59.714 29.145 59.2934C28.0097 56.0923 27.5283 54.7351 28.2189 52.7188C29.0001 50.4375 28.6872 46.7812 28.2189 45.375C28.1166 45.0681 27.9176 44.6971 27.6835 44.2608C26.8453 42.6983 25.5575 40.2979 26.6568 37C27.7818 33.625 29.8335 29.8854 30.7188 28.4375C31.6667 25.1875 35.45 18.6875 43 18.6875C44.4147 18.6875 45.4719 18.8952 46.241 19.2523C48.3846 20.0465 51.2388 21.9137 53 25.0001C53.5417 27.073 54.9875 31.6688 56.4375 33.4688C58.25 35.7188 58.9063 41.0626 57.8125 43.1876C57.6118 43.5774 57.4017 43.9463 57.1954 44.3083C56.2773 45.9198 55.4355 47.3974 55.8438 50.0001C56.2438 52.5501 56.5104 53.5209 56.5938 53.6876C54.9688 53.7084 51.3063 53.1251 49.6563 50.6251C48.0063 48.1251 47.599 46.1302 47.8594 45.1094C49.2344 42.4115 52.4438 35.9876 52.2188 34.5626C51.7708 34.2396 50.85 33.3251 50.75 32.2501C50.6866 31.5686 49.4257 30.7425 48.1492 29.9062C46.9902 29.1467 45.8183 28.3789 45.5187 27.7035Z" fill="#3B2F2F"/>
<path fill-rule="evenodd" clip-rule="evenodd" d="M43 77C61.7777 77 77 61.7777 77 43C77 24.2223 61.7777 9 43 9C24.2223 9 9 24.2223 9 43C9 61.7777 24.2223 77 43 77ZM43 79C62.8823 79 79 62.8823 79 43C79 23.1177 62.8823 7 43 7C23.1177 7 7 23.1177 7 43C7 62.8823 23.1177 79 43 79Z" fill="#EFF0F3"/>
<path fill-rule="evenodd" clip-rule="evenodd" d="M43 77C61.7777 77 77 61.7777 77 43C77 24.2223 61.7777 9 43 9C24.2223 9 9 24.2223 9 43C9 61.7777 24.2223 77 43 77ZM43 79C62.8823 79 79 62.8823 79 43C79 23.1177 62.8823 7 43 7C23.1177 7 7 23.1177 7 43C7 62.8823 23.1177 79 43 79Z" fill="black" fill-opacity="0.2"/>
</svg>
