<svg width="86" height="86" viewBox="0 0 86 86" fill="none" xmlns="http://www.w3.org/2000/svg">
<path fill-rule="evenodd" clip-rule="evenodd" d="M32.8516 50.8252C30.6224 51.1585 25.6 52.7189 23.5 55.6689C21.4 58.6189 20 66.5231 19.5625 70.1064C23.3125 73.2314 33.2375 79.3814 42.9375 78.9814C52.6375 79.3814 62.5625 73.2314 66.3125 70.1064C65.875 66.5231 64.475 58.6189 62.375 55.6689C60.275 52.7189 55.2526 51.1585 53.0234 50.8252C49.2734 53.8752 44.75 54.3356 42.9375 54.2939C41.125 54.3356 36.6016 53.8752 32.8516 50.8252Z" fill="#46587C"/>
<path fill-rule="evenodd" clip-rule="evenodd" d="M32.8516 50.8252C30.6224 51.1585 25.6 52.7189 23.5 55.6689C21.4 58.6189 20 66.5231 19.5625 70.1064C23.3125 73.2314 33.2375 79.3814 42.9375 78.9814C52.6375 79.3814 62.5625 73.2314 66.3125 70.1064C65.875 66.5231 64.475 58.6189 62.375 55.6689C60.275 52.7189 55.2526 51.1585 53.0234 50.8252C49.2734 53.8752 44.75 54.3356 42.9375 54.2939C41.125 54.3356 36.6016 53.8752 32.8516 50.8252Z" fill="black" fill-opacity="0.2"/>
<path fill-rule="evenodd" clip-rule="evenodd" d="M37.5303 43.2318C37.6761 44.9922 36.8428 48.9755 32.3428 50.8255C33.551 52.0338 37.3111 54.4255 42.686 54.3255C48.0609 54.4255 51.8211 52.0338 53.0293 50.8255C48.5293 48.9755 47.696 44.9922 47.8418 43.2318C45.9167 40.5819 43.6026 43.3147 42.686 45.0127C41.7694 43.3147 39.4554 40.5819 37.5303 43.2318Z" fill="#E3B09F"/>
<path fill-rule="evenodd" clip-rule="evenodd" d="M37.5303 43.2318C37.6761 44.9922 36.8428 48.9755 32.3428 50.8255C33.551 52.0338 37.3111 54.4255 42.686 54.3255C48.0609 54.4255 51.8211 52.0338 53.0293 50.8255C48.5293 48.9755 47.696 44.9922 47.8418 43.2318C45.9167 40.5819 43.6026 43.3147 42.686 45.0127C41.7694 43.3147 39.4554 40.5819 37.5303 43.2318Z" fill="black" fill-opacity="0.2"/>
<path fill-rule="evenodd" clip-rule="evenodd" d="M42.9995 46.4811C42.9997 46.4811 42.9998 46.4812 43 46.4812V46.481C47.5995 45.4305 50.6658 40.4394 51.5095 38.075C52.1866 36.9083 53.2783 33.5562 52.2283 29.4812C51.1783 25.4065 45.6143 24.4501 42.9995 24.4812C40.3847 24.4501 34.8207 25.4065 33.7707 29.4812C32.7207 33.5562 33.8124 36.9083 34.4895 38.075C35.3332 40.4394 38.3996 45.4305 42.999 46.481V46.4812C42.9992 46.4812 42.9993 46.4811 42.9995 46.4811Z" fill="#FDCDB7"/>
<path fill-rule="evenodd" clip-rule="evenodd" d="M42.9995 46.4811C42.9997 46.4811 42.9998 46.4812 43 46.4812V46.481C47.5995 45.4305 50.6658 40.4394 51.5095 38.075C52.1866 36.9083 53.2783 33.5562 52.2283 29.4812C51.1783 25.4065 45.6143 24.4501 42.9995 24.4812C40.3847 24.4501 34.8207 25.4065 33.7707 29.4812C32.7207 33.5562 33.8124 36.9083 34.4895 38.075C35.3332 40.4394 38.3996 45.4305 42.999 46.481V46.4812C42.9992 46.4812 42.9993 46.4811 42.9995 46.4811Z" fill="black" fill-opacity="0.2"/>
<path d="M52.1338 20.806C45.5762 13.8567 37.2996 18.0253 36.5692 20.6489C35.6437 20.8052 33.3978 21.524 32.5501 23.1492C31.7024 24.7745 32.6261 30.3641 33.3325 32.4577C35.5825 25.0828 37.5418 25.7312 39.6356 25.95C45.2606 23.4812 51.9573 29.0958 52.5419 32.4499C52.7002 32.5853 52.8808 32.6061 53.3887 29.0749C53.8576 25.8142 54.1669 23.4188 52.1338 20.806Z" fill="#3B2F2F"/>
<path d="M52.1338 20.806C45.5762 13.8567 37.2996 18.0253 36.5692 20.6489C35.6437 20.8052 33.3978 21.524 32.5501 23.1492C31.7024 24.7745 32.6261 30.3641 33.3325 32.4577C35.5825 25.0828 37.5418 25.7312 39.6356 25.95C45.2606 23.4812 51.9573 29.0958 52.5419 32.4499C52.7002 32.5853 52.8808 32.6061 53.3887 29.0749C53.8576 25.8142 54.1669 23.4188 52.1338 20.806Z" fill="black" fill-opacity="0.2"/>
<path d="M53.5703 31.1216C53.0703 30.9966 52.6953 31.9445 52.5703 32.4341L52.1855 36.2939C54.6855 34.8564 54.1953 31.2778 53.5703 31.1216Z" fill="#F5C0A6"/>
<path d="M53.5703 31.1216C53.0703 30.9966 52.6953 31.9445 52.5703 32.4341L52.1855 36.2939C54.6855 34.8564 54.1953 31.2778 53.5703 31.1216Z" fill="black" fill-opacity="0.2"/>
<path d="M32.3604 31.1216C32.8604 30.9966 33.2354 31.9445 33.3604 32.4341L33.7451 36.2939C31.2451 34.8564 31.7354 31.2778 32.3604 31.1216Z" fill="#F5C0A6"/>
<path d="M32.3604 31.1216C32.8604 30.9966 33.2354 31.9445 33.3604 32.4341L33.7451 36.2939C31.2451 34.8564 31.7354 31.2778 32.3604 31.1216Z" fill="black" fill-opacity="0.2"/>
<path fill-rule="evenodd" clip-rule="evenodd" d="M42.6426 77C61.4203 77 76.6426 61.7777 76.6426 43C76.6426 24.2223 61.4203 9 42.6426 9C23.8649 9 8.64258 24.2223 8.64258 43C8.64258 61.7777 23.8649 77 42.6426 77ZM42.6426 79C62.5248 79 78.6426 62.8823 78.6426 43C78.6426 23.1177 62.5248 7 42.6426 7C22.7603 7 6.64258 23.1177 6.64258 43C6.64258 62.8823 22.7603 79 42.6426 79Z" fill="#EFF0F3"/>
<path fill-rule="evenodd" clip-rule="evenodd" d="M42.6426 77C61.4203 77 76.6426 61.7777 76.6426 43C76.6426 24.2223 61.4203 9 42.6426 9C23.8649 9 8.64258 24.2223 8.64258 43C8.64258 61.7777 23.8649 77 42.6426 77ZM42.6426 79C62.5248 79 78.6426 62.8823 78.6426 43C78.6426 23.1177 62.5248 7 42.6426 7C22.7603 7 6.64258 23.1177 6.64258 43C6.64258 62.8823 22.7603 79 42.6426 79Z" fill="black" fill-opacity="0.2"/>
</svg>
