<svg width="80" height="80" viewBox="0 0 80 80" fill="none" xmlns="http://www.w3.org/2000/svg">
<path d="M70 40C70 56.5685 56.5685 70 40 70C23.4315 70 10 56.5685 10 40C10 23.4315 23.4315 10 40 10C56.5685 10 70 23.4315 70 40Z" fill="#FF9A00"/>
<path d="M38.0767 41.923H25.2561C24.7112 41.923 24.2545 41.7387 23.8859 41.37C23.5173 41.0012 23.333 40.5443 23.333 39.9992C23.333 39.454 23.5173 38.9974 23.8859 38.6292C24.2545 38.2611 24.7112 38.077 25.2561 38.077H38.0767V25.2564C38.0767 24.7116 38.261 24.2548 38.6297 23.8862C38.9985 23.5176 39.4554 23.3333 40.0005 23.3333C40.5456 23.3333 41.0023 23.5176 41.3704 23.8862C41.7386 24.2548 41.9227 24.7116 41.9227 25.2564V38.077H54.7433C55.2881 38.077 55.7449 38.2614 56.1135 38.6301C56.482 38.9988 56.6663 39.4558 56.6663 40.0008C56.6663 40.546 56.482 41.0026 56.1135 41.3708C55.7449 41.7389 55.2881 41.923 54.7433 41.923H41.9227V54.7436C41.9227 55.2885 41.7383 55.7452 41.3696 56.1138C41.0009 56.4824 40.5439 56.6667 39.9988 56.6667C39.4537 56.6667 38.9971 56.4824 38.6289 56.1138C38.2607 55.7452 38.0767 55.2885 38.0767 54.7436V41.923Z" fill="white"/>
</svg>
