<svg width="24" height="24" viewBox="0 0 24 24" fill="none" xmlns="http://www.w3.org/2000/svg">
<path d="M12.0732 19.041L7.38848 21.0332C6.71343 21.3209 6.07497 21.2658 5.47311 20.8678C4.87124 20.4698 4.57031 19.9081 4.57031 19.1826V5.00772C4.57031 4.45119 4.76669 3.97744 5.15946 3.58645C5.5522 3.19548 6.02816 3 6.58733 3H17.5533C18.1125 3 18.5884 3.19548 18.9812 3.58645C19.3739 3.97744 19.5703 4.45119 19.5703 5.00772V19.1826C19.5703 19.9081 19.2694 20.4698 18.6675 20.8678C18.0657 21.2658 17.4291 21.3209 16.7578 21.0332L12.0732 19.041ZM12.0703 17.201L17.4029 19.4963C17.5243 19.5492 17.64 19.5379 17.75 19.4623C17.8599 19.3868 17.9149 19.2849 17.9149 19.1565V5.01034C17.9149 4.91974 17.877 4.83667 17.8012 4.76115C17.7253 4.68565 17.6418 4.64789 17.5508 4.64789H6.58981C6.49878 4.64789 6.41533 4.68565 6.33946 4.76115C6.26362 4.83667 6.22569 4.91974 6.22569 5.01034V19.1565C6.22569 19.2849 6.28068 19.3868 6.39067 19.4623C6.50067 19.5379 6.61636 19.5492 6.73772 19.4963L12.0703 17.201ZM12.0703 4.64789H6.22569H17.9149H12.0703Z" fill="white"/>
<path d="M12.0732 19.041L7.38848 21.0332C6.71343 21.3209 6.07497 21.2658 5.47311 20.8678C4.87124 20.4698 4.57031 19.9081 4.57031 19.1826V5.00772C4.57031 4.45119 4.76669 3.97744 5.15946 3.58645C5.5522 3.19548 6.02816 3 6.58733 3H17.5533C18.1125 3 18.5884 3.19548 18.9812 3.58645C19.3739 3.97744 19.5703 4.45119 19.5703 5.00772V19.1826C19.5703 19.9081 19.2694 20.4698 18.6675 20.8678C18.0657 21.2658 17.4291 21.3209 16.7578 21.0332L12.0732 19.041ZM12.0703 17.201L17.4029 19.4963C17.5243 19.5492 17.64 19.5379 17.75 19.4623C17.8599 19.3868 17.9149 19.2849 17.9149 19.1565V5.01034C17.9149 4.91974 17.877 4.83667 17.8012 4.76115C17.7253 4.68565 17.6418 4.64789 17.5508 4.64789H6.58981C6.49878 4.64789 6.41533 4.68565 6.33946 4.76115C6.26362 4.83667 6.22569 4.91974 6.22569 5.01034V19.1565C6.22569 19.2849 6.28068 19.3868 6.39067 19.4623C6.50067 19.5379 6.61636 19.5492 6.73772 19.4963L12.0703 17.201ZM12.0703 4.64789H6.22569H17.9149H12.0703Z" fill="#1C1C1C"/>
</svg>
