<svg width="24" height="24" viewBox="0 0 24 24" fill="none" xmlns="http://www.w3.org/2000/svg">
<path d="M12 13.2724L5.53243 19.7294C5.35477 19.9068 5.14339 19.9948 4.89826 19.9936C4.65316 19.9924 4.43972 19.901 4.25794 19.7195C4.08275 19.5381 3.9968 19.3287 4.00009 19.0914C4.00338 18.854 4.09263 18.6479 4.26782 18.473L10.7255 12L4.26782 5.52698C4.10084 5.3603 4.0153 5.15624 4.01119 4.9148C4.00708 4.67339 4.09263 4.46194 4.26782 4.28046C4.44301 4.09898 4.65111 4.00557 4.8921 4.00023C5.1331 3.99489 5.34654 4.08296 5.53243 4.26445L12 10.7276L18.4737 4.26445C18.6473 4.09118 18.8566 4.00516 19.1017 4.00638C19.3468 4.00762 19.5623 4.09898 19.7482 4.28046C19.9193 4.46194 20.0032 4.67134 19.9999 4.90866C19.9966 5.14597 19.9074 5.35208 19.7322 5.52698L13.2745 12L19.7322 18.473C19.8992 18.6397 19.9847 18.8438 19.9888 19.0852C19.9929 19.3266 19.9074 19.5381 19.7322 19.7195C19.557 19.901 19.3489 19.9944 19.1079 19.9998C18.8669 20.0051 18.6555 19.915 18.4737 19.7294L12 13.2724Z" fill="white"/>
<path d="M12 13.2724L5.53243 19.7294C5.35477 19.9068 5.14339 19.9948 4.89826 19.9936C4.65316 19.9924 4.43972 19.901 4.25794 19.7195C4.08275 19.5381 3.9968 19.3287 4.00009 19.0914C4.00338 18.854 4.09263 18.6479 4.26782 18.473L10.7255 12L4.26782 5.52698C4.10084 5.3603 4.0153 5.15624 4.01119 4.9148C4.00708 4.67339 4.09263 4.46194 4.26782 4.28046C4.44301 4.09898 4.65111 4.00557 4.8921 4.00023C5.1331 3.99489 5.34654 4.08296 5.53243 4.26445L12 10.7276L18.4737 4.26445C18.6473 4.09118 18.8566 4.00516 19.1017 4.00638C19.3468 4.00762 19.5623 4.09898 19.7482 4.28046C19.9193 4.46194 20.0032 4.67134 19.9999 4.90866C19.9966 5.14597 19.9074 5.35208 19.7322 5.52698L13.2745 12L19.7322 18.473C19.8992 18.6397 19.9847 18.8438 19.9888 19.0852C19.9929 19.3266 19.9074 19.5381 19.7322 19.7195C19.557 19.901 19.3489 19.9944 19.1079 19.9998C18.8669 20.0051 18.6555 19.915 18.4737 19.7294L12 13.2724Z" fill="#1C1C1C"/>
</svg>
