<svg width="24" height="24" viewBox="0 0 24 24" fill="none" xmlns="http://www.w3.org/2000/svg">
<path d="M21 12C21 16.9706 16.9706 21 12 21C7.02944 21 3 16.9706 3 12C3 7.02944 7.02944 3 12 3C16.9706 3 21 7.02944 21 12Z" fill="#EFF0F3"/>
<path d="M21 12C21 16.9706 16.9706 21 12 21C7.02944 21 3 16.9706 3 12C3 7.02944 7.02944 3 12 3C16.9706 3 21 7.02944 21 12Z" fill="black" fill-opacity="0.1"/>
<path d="M12.0043 12.928L9.12991 15.8025C9.00163 15.9308 8.8461 15.9935 8.66332 15.9906C8.48056 15.9878 8.32504 15.9222 8.19676 15.794C8.06848 15.6657 8.00434 15.5087 8.00434 15.3231C8.00434 15.1375 8.06848 14.9806 8.19676 14.8523L11.0627 11.9864L8.18824 9.13409C8.05996 9.00581 7.99724 8.84886 8.00009 8.66325C8.00293 8.47764 8.06848 8.32069 8.19676 8.19242C8.32504 8.06414 8.48198 8 8.66759 8C8.85319 8 9.01013 8.06414 9.13841 8.19242L12.0043 11.0669L14.8566 8.19242C14.9849 8.06414 15.1404 8 15.3232 8C15.506 8 15.6615 8.06414 15.7898 8.19242C15.9271 8.32978 15.9958 8.489 15.9958 8.67007C15.9958 8.85114 15.9271 9.00581 15.7898 9.13409L12.9239 11.9864L15.7983 14.8608C15.9266 14.9891 15.9907 15.1446 15.9907 15.3274C15.9907 15.5102 15.9266 15.6657 15.7983 15.794C15.6609 15.9313 15.5017 16 15.3207 16C15.1396 16 14.9849 15.9313 14.8566 15.794L12.0043 12.928Z" fill="white"/>
</svg>
