<svg width="24" height="24" viewBox="0 0 24 24" fill="none" xmlns="http://www.w3.org/2000/svg">
<path d="M12.0003 16.5C12.2017 16.5 12.3704 16.4319 12.5065 16.2957C12.6425 16.1595 12.7105 15.9908 12.7105 15.7895V11.7631C12.7105 11.5618 12.6424 11.3931 12.5062 11.2569C12.3699 11.1207 12.2011 11.0526 11.9997 11.0526C11.7983 11.0526 11.6296 11.1207 11.4935 11.2569C11.3575 11.3931 11.2895 11.5618 11.2895 11.7631V15.7895C11.2895 15.9908 11.3576 16.1595 11.4938 16.2957C11.6301 16.4319 11.7989 16.5 12.0003 16.5ZM12 9.43118C12.2168 9.43118 12.3985 9.35785 12.5452 9.2112C12.6918 9.06455 12.7652 8.88282 12.7652 8.66601C12.7652 8.44922 12.6918 8.26749 12.5452 8.12082C12.3985 7.97417 12.2168 7.90084 12 7.90084C11.7832 7.90084 11.6015 7.97417 11.4548 8.12082C11.3082 8.26749 11.2348 8.44922 11.2348 8.66601C11.2348 8.88282 11.3082 9.06455 11.4548 9.2112C11.6015 9.35785 11.7832 9.43118 12 9.43118ZM12.0016 21C10.7568 21 9.58677 20.7638 8.49148 20.2914C7.39618 19.8189 6.44342 19.1778 5.63322 18.368C4.82299 17.5581 4.18157 16.6058 3.70894 15.511C3.23631 14.4162 3 13.2464 3 12.0016C3 10.7568 3.23621 9.58677 3.70863 8.49148C4.18106 7.39618 4.82219 6.44343 5.63203 5.63322C6.44189 4.823 7.39423 4.18157 8.48904 3.70894C9.58384 3.23631 10.7536 3 11.9984 3C13.2432 3 14.4132 3.23621 15.5085 3.70863C16.6038 4.18106 17.5566 4.82219 18.3668 5.63203C19.177 6.44189 19.8184 7.39423 20.2911 8.48904C20.7637 9.58384 21 10.7536 21 11.9984C21 13.2432 20.7638 14.4132 20.2914 15.5085C19.8189 16.6038 19.1778 17.5566 18.368 18.3668C17.5581 19.177 16.6058 19.8184 15.511 20.2911C14.4162 20.7637 13.2464 21 12.0016 21ZM12 19.579C14.1158 19.579 15.9079 18.8448 17.3763 17.3763C18.8448 15.9079 19.579 14.1158 19.579 12C19.579 9.8842 18.8448 8.0921 17.3763 6.62367C15.9079 5.15525 14.1158 4.42103 12 4.42103C9.8842 4.42103 8.09209 5.15525 6.62367 6.62367C5.15524 8.0921 4.42103 9.8842 4.42103 12C4.42103 14.1158 5.15524 15.9079 6.62367 17.3763C8.09209 18.8448 9.8842 19.579 12 19.579Z" fill="white"/>
<path d="M12.0003 16.5C12.2017 16.5 12.3704 16.4319 12.5065 16.2957C12.6425 16.1595 12.7105 15.9908 12.7105 15.7895V11.7631C12.7105 11.5618 12.6424 11.3931 12.5062 11.2569C12.3699 11.1207 12.2011 11.0526 11.9997 11.0526C11.7983 11.0526 11.6296 11.1207 11.4935 11.2569C11.3575 11.3931 11.2895 11.5618 11.2895 11.7631V15.7895C11.2895 15.9908 11.3576 16.1595 11.4938 16.2957C11.6301 16.4319 11.7989 16.5 12.0003 16.5ZM12 9.43118C12.2168 9.43118 12.3985 9.35785 12.5452 9.2112C12.6918 9.06455 12.7652 8.88282 12.7652 8.66601C12.7652 8.44922 12.6918 8.26749 12.5452 8.12082C12.3985 7.97417 12.2168 7.90084 12 7.90084C11.7832 7.90084 11.6015 7.97417 11.4548 8.12082C11.3082 8.26749 11.2348 8.44922 11.2348 8.66601C11.2348 8.88282 11.3082 9.06455 11.4548 9.2112C11.6015 9.35785 11.7832 9.43118 12 9.43118ZM12.0016 21C10.7568 21 9.58677 20.7638 8.49148 20.2914C7.39618 19.8189 6.44342 19.1778 5.63322 18.368C4.82299 17.5581 4.18157 16.6058 3.70894 15.511C3.23631 14.4162 3 13.2464 3 12.0016C3 10.7568 3.23621 9.58677 3.70863 8.49148C4.18106 7.39618 4.82219 6.44343 5.63203 5.63322C6.44189 4.823 7.39423 4.18157 8.48904 3.70894C9.58384 3.23631 10.7536 3 11.9984 3C13.2432 3 14.4132 3.23621 15.5085 3.70863C16.6038 4.18106 17.5566 4.82219 18.3668 5.63203C19.177 6.44189 19.8184 7.39423 20.2911 8.48904C20.7637 9.58384 21 10.7536 21 11.9984C21 13.2432 20.7638 14.4132 20.2914 15.5085C19.8189 16.6038 19.1778 17.5566 18.368 18.3668C17.5581 19.177 16.6058 19.8184 15.511 20.2911C14.4162 20.7637 13.2464 21 12.0016 21ZM12 19.579C14.1158 19.579 15.9079 18.8448 17.3763 17.3763C18.8448 15.9079 19.579 14.1158 19.579 12C19.579 9.8842 18.8448 8.0921 17.3763 6.62367C15.9079 5.15525 14.1158 4.42103 12 4.42103C9.8842 4.42103 8.09209 5.15525 6.62367 6.62367C5.15524 8.0921 4.42103 9.8842 4.42103 12C4.42103 14.1158 5.15524 15.9079 6.62367 17.3763C8.09209 18.8448 9.8842 19.579 12 19.579Z" fill="#1C1C1C"/>
</svg>
