<svg width="24" height="24" viewBox="0 0 24 24" fill="none" xmlns="http://www.w3.org/2000/svg">
<path d="M15.051 12.0847L7.56635 19.5645C7.3843 19.75 7.29376 19.9714 7.29472 20.2286C7.29569 20.4858 7.3888 20.7063 7.57405 20.8899C7.7593 21.0736 7.97996 21.1654 8.23602 21.1654C8.49207 21.1654 8.71243 21.0728 8.8971 20.8875L16.5071 13.285C16.6799 13.1123 16.8053 12.9243 16.8832 12.721C16.9611 12.5176 17 12.3059 17 12.0859C17 11.8658 16.9611 11.6537 16.8832 11.4496C16.8053 11.2454 16.68 11.0569 16.5072 10.8841L8.89713 3.27408C8.71187 3.08883 8.49008 2.99749 8.23175 3.00005C7.97342 3.00262 7.75163 3.09493 7.56637 3.27698C7.38433 3.46251 7.2933 3.68389 7.2933 3.94113C7.2933 4.19834 7.38456 4.41821 7.56707 4.60073L15.051 12.0847Z" fill="white"/>
<path d="M15.051 12.0847L7.56635 19.5645C7.3843 19.75 7.29376 19.9714 7.29472 20.2286C7.29569 20.4858 7.3888 20.7063 7.57405 20.8899C7.7593 21.0736 7.97996 21.1654 8.23602 21.1654C8.49207 21.1654 8.71243 21.0728 8.8971 20.8875L16.5071 13.285C16.6799 13.1123 16.8053 12.9243 16.8832 12.721C16.9611 12.5176 17 12.3059 17 12.0859C17 11.8658 16.9611 11.6537 16.8832 11.4496C16.8053 11.2454 16.68 11.0569 16.5072 10.8841L8.89713 3.27408C8.71187 3.08883 8.49008 2.99749 8.23175 3.00005C7.97342 3.00262 7.75163 3.09493 7.56637 3.27698C7.38433 3.46251 7.2933 3.68389 7.2933 3.94113C7.2933 4.19834 7.38456 4.41821 7.56707 4.60073L15.051 12.0847Z" fill="#1C1C1C"/>
</svg>
