<svg width="24" height="24" viewBox="0 0 24 24" fill="none" xmlns="http://www.w3.org/2000/svg">
<path d="M12.5 16.6153C13.6474 16.6153 14.6202 16.2163 15.4182 15.4182C16.2163 14.6202 16.6153 13.6474 16.6153 12.5C16.6153 11.3525 16.2163 10.3798 15.4182 9.58173C14.6202 8.78366 13.6474 8.38463 12.5 8.38463C11.3525 8.38463 10.3798 8.78366 9.58173 9.58173C8.78366 10.3798 8.38462 11.3525 8.38462 12.5C8.38462 13.6474 8.78366 14.6202 9.58173 15.4182C10.3798 16.2163 11.3525 16.6153 12.5 16.6153ZM12.5 15.1154C11.7615 15.1154 11.141 14.8641 10.6384 14.3615C10.1359 13.859 9.88458 13.2384 9.88458 12.5C9.88458 11.7615 10.1359 11.141 10.6384 10.6384C11.141 10.1359 11.7615 9.88458 12.5 9.88458C13.2384 9.88458 13.859 10.1359 14.3615 10.6384C14.8641 11.141 15.1154 11.7615 15.1154 12.5C15.1154 13.2384 14.8641 13.859 14.3615 14.3615C13.859 14.8641 13.2384 15.1154 12.5 15.1154ZM4.8077 20C4.30257 20 3.875 19.825 3.525 19.475C3.175 19.125 3 18.6974 3 18.1923V6.8077C3 6.30257 3.175 5.875 3.525 5.525C3.875 5.175 4.30257 5 4.8077 5H7.86153L9.16923 3.5827C9.33333 3.40193 9.53173 3.25963 9.76443 3.15578C9.99711 3.05193 10.2423 3 10.5 3H14.5C14.7577 3 15.0028 3.05193 15.2355 3.15578C15.4682 3.25963 15.6666 3.40193 15.8307 3.5827L17.1384 5H20.1923C20.6974 5 21.125 5.175 21.475 5.525C21.825 5.875 22 6.30257 22 6.8077V18.1923C22 18.6974 21.825 19.125 21.475 19.475C21.125 19.825 20.6974 20 20.1923 20H4.8077ZM4.8077 18.5H20.1923C20.282 18.5 20.3557 18.4711 20.4134 18.4134C20.4711 18.3557 20.5 18.282 20.5 18.1923V6.8077C20.5 6.71795 20.4711 6.64423 20.4134 6.58653C20.3557 6.52883 20.282 6.49998 20.1923 6.49998H16.4692L14.6346 4.49998H10.3654L8.53075 6.49998H4.8077C4.71795 6.49998 4.64423 6.52883 4.58653 6.58653C4.52883 6.64423 4.49998 6.71795 4.49998 6.8077V18.1923C4.49998 18.282 4.52883 18.3557 4.58653 18.4134C4.64423 18.4711 4.71795 18.5 4.8077 18.5Z" fill="white"/>
<path d="M12.5 16.6153C13.6474 16.6153 14.6202 16.2163 15.4182 15.4182C16.2163 14.6202 16.6153 13.6474 16.6153 12.5C16.6153 11.3525 16.2163 10.3798 15.4182 9.58173C14.6202 8.78366 13.6474 8.38463 12.5 8.38463C11.3525 8.38463 10.3798 8.78366 9.58173 9.58173C8.78366 10.3798 8.38462 11.3525 8.38462 12.5C8.38462 13.6474 8.78366 14.6202 9.58173 15.4182C10.3798 16.2163 11.3525 16.6153 12.5 16.6153ZM12.5 15.1154C11.7615 15.1154 11.141 14.8641 10.6384 14.3615C10.1359 13.859 9.88458 13.2384 9.88458 12.5C9.88458 11.7615 10.1359 11.141 10.6384 10.6384C11.141 10.1359 11.7615 9.88458 12.5 9.88458C13.2384 9.88458 13.859 10.1359 14.3615 10.6384C14.8641 11.141 15.1154 11.7615 15.1154 12.5C15.1154 13.2384 14.8641 13.859 14.3615 14.3615C13.859 14.8641 13.2384 15.1154 12.5 15.1154ZM4.8077 20C4.30257 20 3.875 19.825 3.525 19.475C3.175 19.125 3 18.6974 3 18.1923V6.8077C3 6.30257 3.175 5.875 3.525 5.525C3.875 5.175 4.30257 5 4.8077 5H7.86153L9.16923 3.5827C9.33333 3.40193 9.53173 3.25963 9.76443 3.15578C9.99711 3.05193 10.2423 3 10.5 3H14.5C14.7577 3 15.0028 3.05193 15.2355 3.15578C15.4682 3.25963 15.6666 3.40193 15.8307 3.5827L17.1384 5H20.1923C20.6974 5 21.125 5.175 21.475 5.525C21.825 5.875 22 6.30257 22 6.8077V18.1923C22 18.6974 21.825 19.125 21.475 19.475C21.125 19.825 20.6974 20 20.1923 20H4.8077ZM4.8077 18.5H20.1923C20.282 18.5 20.3557 18.4711 20.4134 18.4134C20.4711 18.3557 20.5 18.282 20.5 18.1923V6.8077C20.5 6.71795 20.4711 6.64423 20.4134 6.58653C20.3557 6.52883 20.282 6.49998 20.1923 6.49998H16.4692L14.6346 4.49998H10.3654L8.53075 6.49998H4.8077C4.71795 6.49998 4.64423 6.52883 4.58653 6.58653C4.52883 6.64423 4.49998 6.71795 4.49998 6.8077V18.1923C4.49998 18.282 4.52883 18.3557 4.58653 18.4134C4.64423 18.4711 4.71795 18.5 4.8077 18.5Z" fill="#1C1C1C"/>
</svg>
