<svg width="24" height="24" viewBox="0 0 24 24" fill="none" xmlns="http://www.w3.org/2000/svg">
<path d="M8.94903 12.0847L16.4337 19.5645C16.6157 19.75 16.7062 19.9714 16.7053 20.2286C16.7043 20.4858 16.6112 20.7063 16.426 20.8899C16.2407 21.0736 16.02 21.1654 15.764 21.1654C15.5079 21.1654 15.2876 21.0728 15.1029 20.8875L7.49287 13.285C7.32007 13.1123 7.19473 12.9243 7.11685 12.721C7.03895 12.5176 7 12.3059 7 12.0859C7 11.8658 7.03894 11.6537 7.11683 11.4496C7.19471 11.2454 7.32004 11.0569 7.49282 10.8841L15.1029 3.27408C15.2881 3.08883 15.5099 2.99749 15.7683 3.00005C16.0266 3.00262 16.2484 3.09493 16.4336 3.27698C16.6157 3.46251 16.7067 3.68389 16.7067 3.94113C16.7067 4.19834 16.6154 4.41821 16.4329 4.60073L8.94903 12.0847Z" fill="white"/>
<path d="M8.94903 12.0847L16.4337 19.5645C16.6157 19.75 16.7062 19.9714 16.7053 20.2286C16.7043 20.4858 16.6112 20.7063 16.426 20.8899C16.2407 21.0736 16.02 21.1654 15.764 21.1654C15.5079 21.1654 15.2876 21.0728 15.1029 20.8875L7.49287 13.285C7.32007 13.1123 7.19473 12.9243 7.11685 12.721C7.03895 12.5176 7 12.3059 7 12.0859C7 11.8658 7.03894 11.6537 7.11683 11.4496C7.19471 11.2454 7.32004 11.0569 7.49282 10.8841L15.1029 3.27408C15.2881 3.08883 15.5099 2.99749 15.7683 3.00005C16.0266 3.00262 16.2484 3.09493 16.4336 3.27698C16.6157 3.46251 16.7067 3.68389 16.7067 3.94113C16.7067 4.19834 16.6154 4.41821 16.4329 4.60073L8.94903 12.0847Z" fill="#1C1C1C"/>
</svg>
