<svg width="24" height="24" viewBox="0 0 24 24" fill="none" xmlns="http://www.w3.org/2000/svg">
<path d="M10.5846 18.1617C8.47087 18.1617 6.67833 17.4264 5.207 15.9558C3.73567 14.4853 3 12.6944 3 10.5832C3 8.47202 3.73567 6.68036 5.207 5.20821C6.67833 3.73607 8.47014 3 10.5824 3C12.6947 3 14.4873 3.73646 15.9602 5.20937C17.4331 6.68228 18.1696 8.4736 18.1696 10.5833C18.1696 11.5192 18.013 12.388 17.6998 13.1895C17.3866 13.9911 16.953 14.7368 16.3992 15.4266L20.8035 19.8409C20.9376 19.9749 21.0031 20.1344 20.9999 20.3193C20.9967 20.5042 20.9311 20.6639 20.8029 20.7983C20.6684 20.9328 20.507 21 20.3189 21C20.1307 21 19.9695 20.9329 19.8354 20.7987L15.4171 16.3923C14.7281 16.9489 13.9842 17.383 13.1854 17.6945C12.3866 18.006 11.5196 18.1617 10.5846 18.1617ZM10.5826 16.7843C12.3007 16.7843 13.7651 16.18 14.9756 14.9716C16.1862 13.7632 16.7914 12.3004 16.7914 10.5831C16.7914 8.86582 16.1866 7.40222 14.9769 6.19231C13.7672 4.9824 12.3028 4.37744 10.5837 4.37744C8.86461 4.37744 7.40058 4.98197 6.19161 6.19103C4.98264 7.40009 4.37816 8.86372 4.37816 10.5819C4.37816 12.3001 4.98268 13.7634 6.19173 14.9718C7.40076 16.1801 8.86437 16.7843 10.5826 16.7843Z" fill="white"/>
<path d="M10.5846 18.1617C8.47087 18.1617 6.67833 17.4264 5.207 15.9558C3.73567 14.4853 3 12.6944 3 10.5832C3 8.47202 3.73567 6.68036 5.207 5.20821C6.67833 3.73607 8.47014 3 10.5824 3C12.6947 3 14.4873 3.73646 15.9602 5.20937C17.4331 6.68228 18.1696 8.4736 18.1696 10.5833C18.1696 11.5192 18.013 12.388 17.6998 13.1895C17.3866 13.9911 16.953 14.7368 16.3992 15.4266L20.8035 19.8409C20.9376 19.9749 21.0031 20.1344 20.9999 20.3193C20.9967 20.5042 20.9311 20.6639 20.8029 20.7983C20.6684 20.9328 20.507 21 20.3189 21C20.1307 21 19.9695 20.9329 19.8354 20.7987L15.4171 16.3923C14.7281 16.9489 13.9842 17.383 13.1854 17.6945C12.3866 18.006 11.5196 18.1617 10.5846 18.1617ZM10.5826 16.7843C12.3007 16.7843 13.7651 16.18 14.9756 14.9716C16.1862 13.7632 16.7914 12.3004 16.7914 10.5831C16.7914 8.86582 16.1866 7.40222 14.9769 6.19231C13.7672 4.9824 12.3028 4.37744 10.5837 4.37744C8.86461 4.37744 7.40058 4.98197 6.19161 6.19103C4.98264 7.40009 4.37816 8.86372 4.37816 10.5819C4.37816 12.3001 4.98268 13.7634 6.19173 14.9718C7.40076 16.1801 8.86437 16.7843 10.5826 16.7843Z" fill="#1C1C1C"/>
</svg>
