<svg width="40" height="40" viewBox="0 0 40 40" fill="none" xmlns="http://www.w3.org/2000/svg">
<path fill-rule="evenodd" clip-rule="evenodd" d="M21.2177 5.79593C21.106 5.55831 20.9272 5.35707 20.7026 5.21602C20.478 5.07496 20.2169 5 19.9502 5C19.6835 5 19.4224 5.07496 19.1978 5.21602C18.9732 5.35707 18.7944 5.55831 18.6827 5.79593L14.6763 14.3165L5.18246 15.422C4.91758 15.4527 4.6672 15.5572 4.46096 15.7232C4.25472 15.8891 4.10125 16.1096 4.01871 16.3585C3.93618 16.6074 3.92803 16.8743 3.99524 17.1276C4.06244 17.3809 4.20219 17.6099 4.39793 17.7877L11.4196 24.1576L9.55596 33.3631C9.5042 33.6197 9.5284 33.8855 9.62569 34.1291C9.72297 34.3726 9.88929 34.5837 10.105 34.7374C10.3207 34.8912 10.5767 34.9811 10.8428 34.9966C11.1089 35.012 11.3739 34.9524 11.6066 34.8248L19.9502 30.2412L28.2938 34.8248C28.5266 34.953 28.792 35.013 29.0585 34.9977C29.325 34.9824 29.5815 34.8924 29.7974 34.7384C30.0134 34.5844 30.1799 34.3729 30.2771 34.1289C30.3743 33.8849 30.3981 33.6186 30.3458 33.3617L28.4822 24.159L35.5025 17.7877C35.6982 17.6099 35.838 17.3809 35.9052 17.1276C35.9724 16.8743 35.9642 16.6074 35.8817 16.3585C35.7991 16.1096 35.6457 15.8891 35.4394 15.7232C35.2332 15.5572 34.9828 15.4527 34.7179 15.422L25.2227 14.3151L21.2177 5.79593Z" fill="#FFD600"/>
</svg>
