<svg width="24" height="24" viewBox="0 0 24 24" fill="none" xmlns="http://www.w3.org/2000/svg">
<path d="M21 12C21 16.9706 16.9706 21 12 21C7.02944 21 3 16.9706 3 12C3 7.02944 7.02944 3 12 3C16.9706 3 21 7.02944 21 12Z" fill="#EFF0F3"/>
<path d="M21 12C21 16.9706 16.9706 21 12 21C7.02944 21 3 16.9706 3 12C3 7.02944 7.02944 3 12 3C16.9706 3 21 7.02944 21 12Z" fill="black" fill-opacity="0.1"/>
<path d="M11.8299 12.7683L9.2722 10.2106C9.13533 10.0721 8.96426 10.0029 8.75897 10.0029C8.55369 10.0029 8.3767 10.0721 8.228 10.2106C8.07286 10.3593 7.9969 10.5375 8.0001 10.7452C8.00331 10.9529 8.07928 11.1311 8.228 11.2798L11.1972 14.249C11.378 14.4298 11.5889 14.5202 11.8299 14.5202C12.0709 14.5202 12.2818 14.4298 12.4626 14.249L15.4472 11.2644C15.5959 11.1157 15.6693 10.9401 15.6674 10.7375C15.6655 10.5349 15.5869 10.3593 15.4318 10.2106C15.2831 10.0721 15.1075 10.002 14.9049 10C14.7023 9.9981 14.5267 10.0715 14.378 10.2202L11.8299 12.7683Z" fill="white"/>
</svg>
