<svg width="24" height="24" viewBox="0 0 24 24" fill="none" xmlns="http://www.w3.org/2000/svg">
<path d="M11.8519 8.94902L4.37205 16.4336C4.18649 16.6157 3.96511 16.7062 3.70789 16.7053C3.45068 16.7043 3.23025 16.6112 3.0466 16.4259C2.86295 16.2407 2.77112 16.02 2.77112 15.764C2.77112 15.5079 2.86374 15.2876 3.04899 15.1029L10.6515 7.49287C10.8242 7.32007 11.0122 7.19473 11.2156 7.11685C11.4189 7.03895 11.6306 7 11.8507 7C12.0707 7 12.2828 7.03894 12.487 7.11682C12.6911 7.19471 12.8796 7.32004 13.0524 7.49282L20.6624 15.1029C20.8477 15.2881 20.939 15.5099 20.9365 15.7683C20.9339 16.0266 20.8416 16.2484 20.6595 16.4336C20.474 16.6157 20.2526 16.7067 19.9954 16.7067C19.7382 16.7067 19.5183 16.6154 19.3358 16.4329L11.8519 8.94902Z" fill="white"/>
<path d="M11.8519 8.94902L4.37205 16.4336C4.18649 16.6157 3.96511 16.7062 3.70789 16.7053C3.45068 16.7043 3.23025 16.6112 3.0466 16.4259C2.86295 16.2407 2.77112 16.02 2.77112 15.764C2.77112 15.5079 2.86374 15.2876 3.04899 15.1029L10.6515 7.49287C10.8242 7.32007 11.0122 7.19473 11.2156 7.11685C11.4189 7.03895 11.6306 7 11.8507 7C12.0707 7 12.2828 7.03894 12.487 7.11682C12.6911 7.19471 12.8796 7.32004 13.0524 7.49282L20.6624 15.1029C20.8477 15.2881 20.939 15.5099 20.9365 15.7683C20.9339 16.0266 20.8416 16.2484 20.6595 16.4336C20.474 16.6157 20.2526 16.7067 19.9954 16.7067C19.7382 16.7067 19.5183 16.6154 19.3358 16.4329L11.8519 8.94902Z" fill="#1C1C1C"/>
</svg>
