<svg width="24" height="24" viewBox="0 0 24 24" fill="none" xmlns="http://www.w3.org/2000/svg">
<path d="M21 12C21 16.9706 16.9706 21 12 21C7.02944 21 3 16.9706 3 12C3 7.02944 7.02944 3 12 3C16.9706 3 21 7.02944 21 12Z" fill="#EFF0F3"/>
<path d="M21 12C21 16.9706 16.9706 21 12 21C7.02944 21 3 16.9706 3 12C3 7.02944 7.02944 3 12 3C16.9706 3 21 7.02944 21 12Z" fill="black" fill-opacity="0.1"/>
<path d="M11.8299 11.7517L9.2722 14.3094C9.13533 14.4479 8.96426 14.5171 8.75897 14.5171C8.55369 14.5171 8.3767 14.4479 8.228 14.3094C8.07286 14.1607 7.9969 13.9825 8.0001 13.7748C8.00331 13.5671 8.07928 13.3889 8.228 13.2402L11.1972 10.271C11.378 10.0902 11.5889 9.99983 11.8299 9.99983C12.0709 9.99983 12.2818 10.0902 12.4626 10.271L15.4472 13.2556C15.5959 13.4043 15.6693 13.5799 15.6674 13.7825C15.6655 13.9851 15.5869 14.1607 15.4318 14.3094C15.2831 14.4479 15.1075 14.5181 14.9049 14.52C14.7023 14.5219 14.5267 14.4485 14.378 14.2998L11.8299 11.7517Z" fill="white"/>
</svg>
