<svg width="24" height="24" viewBox="0 0 24 24" fill="none" xmlns="http://www.w3.org/2000/svg">
<path d="M12.0847 15.051L19.5645 7.56635C19.75 7.3843 19.9714 7.29376 20.2286 7.29472C20.4858 7.29569 20.7063 7.3888 20.8899 7.57405C21.0736 7.7593 21.1654 7.97996 21.1654 8.23602C21.1654 8.49207 21.0728 8.71243 20.8875 8.8971L13.285 16.5071C13.1123 16.6799 12.9243 16.8053 12.721 16.8831C12.5176 16.961 12.3059 17 12.0859 17C11.8658 17 11.6537 16.9611 11.4496 16.8832C11.2454 16.8053 11.0569 16.68 10.8841 16.5072L3.27408 8.89713C3.08883 8.71187 2.99749 8.49008 3.00005 8.23175C3.00262 7.97342 3.09493 7.75163 3.27698 7.56637C3.46251 7.38433 3.68389 7.2933 3.94113 7.2933C4.19834 7.2933 4.41821 7.38456 4.60073 7.56707L12.0847 15.051Z" fill="white"/>
<path d="M12.0847 15.051L19.5645 7.56635C19.75 7.3843 19.9714 7.29376 20.2286 7.29472C20.4858 7.29569 20.7063 7.3888 20.8899 7.57405C21.0736 7.7593 21.1654 7.97996 21.1654 8.23602C21.1654 8.49207 21.0728 8.71243 20.8875 8.8971L13.285 16.5071C13.1123 16.6799 12.9243 16.8053 12.721 16.8831C12.5176 16.961 12.3059 17 12.0859 17C11.8658 17 11.6537 16.9611 11.4496 16.8832C11.2454 16.8053 11.0569 16.68 10.8841 16.5072L3.27408 8.89713C3.08883 8.71187 2.99749 8.49008 3.00005 8.23175C3.00262 7.97342 3.09493 7.75163 3.27698 7.56637C3.46251 7.38433 3.68389 7.2933 3.94113 7.2933C4.19834 7.2933 4.41821 7.38456 4.60073 7.56707L12.0847 15.051Z" fill="#1C1C1C"/>
</svg>
