<svg width="24" height="24" viewBox="0 0 24 24" fill="none" xmlns="http://www.w3.org/2000/svg">
<path d="M4.06792 21.0625C3.77643 21.0625 3.52556 20.9568 3.31533 20.7453C3.10511 20.5338 3 20.2786 3 19.9796C3 19.6825 3.10559 19.4287 3.31677 19.2181C3.52796 19.0076 3.78124 18.9023 4.07663 18.9023H18.9321C19.2236 18.9023 19.4744 19.007 19.6847 19.2166C19.8949 19.4261 20 19.6807 20 19.9805C20 20.2749 19.8944 20.5288 19.6832 20.7423C19.472 20.9558 19.2188 21.0625 18.9234 21.0625H4.06792ZM6.19294 14.7667H7.11759L14.9921 6.83912L14.5295 6.36493L14.0631 5.90336L6.19294 13.8298V14.7667ZM5.12502 15.1719V13.6698C5.12502 13.5818 5.13928 13.4971 5.1678 13.4155C5.19632 13.3339 5.24563 13.2578 5.31574 13.1871L15.1305 3.31339C15.2384 3.20472 15.3585 3.12533 15.4909 3.0752C15.6233 3.02507 15.7566 3 15.8906 3C16.0264 3 16.16 3.02507 16.2913 3.0752C16.4226 3.12533 16.5408 3.20619 16.6458 3.31778L17.5551 4.23269C17.6623 4.33551 17.7424 4.45442 17.7954 4.58943C17.8485 4.72445 17.875 4.8639 17.875 5.00777C17.875 5.13649 17.8494 5.26735 17.7982 5.40036C17.747 5.53338 17.666 5.65604 17.5551 5.76833L7.75288 15.6421C7.67914 15.7127 7.60311 15.7638 7.52478 15.7952C7.44644 15.8267 7.36573 15.8424 7.28266 15.8424H5.7944C5.60329 15.8424 5.44395 15.7776 5.31638 15.648C5.18881 15.5184 5.12502 15.3597 5.12502 15.1719ZM14.9921 6.83912L14.5295 6.36493L14.0631 5.90336L14.9921 6.83912Z" fill="white"/>
<path d="M4.06792 21.0625C3.77643 21.0625 3.52556 20.9568 3.31533 20.7453C3.10511 20.5338 3 20.2786 3 19.9796C3 19.6825 3.10559 19.4287 3.31677 19.2181C3.52796 19.0076 3.78124 18.9023 4.07663 18.9023H18.9321C19.2236 18.9023 19.4744 19.007 19.6847 19.2166C19.8949 19.4261 20 19.6807 20 19.9805C20 20.2749 19.8944 20.5288 19.6832 20.7423C19.472 20.9558 19.2188 21.0625 18.9234 21.0625H4.06792ZM6.19294 14.7667H7.11759L14.9921 6.83912L14.5295 6.36493L14.0631 5.90336L6.19294 13.8298V14.7667ZM5.12502 15.1719V13.6698C5.12502 13.5818 5.13928 13.4971 5.1678 13.4155C5.19632 13.3339 5.24563 13.2578 5.31574 13.1871L15.1305 3.31339C15.2384 3.20472 15.3585 3.12533 15.4909 3.0752C15.6233 3.02507 15.7566 3 15.8906 3C16.0264 3 16.16 3.02507 16.2913 3.0752C16.4226 3.12533 16.5408 3.20619 16.6458 3.31778L17.5551 4.23269C17.6623 4.33551 17.7424 4.45442 17.7954 4.58943C17.8485 4.72445 17.875 4.8639 17.875 5.00777C17.875 5.13649 17.8494 5.26735 17.7982 5.40036C17.747 5.53338 17.666 5.65604 17.5551 5.76833L7.75288 15.6421C7.67914 15.7127 7.60311 15.7638 7.52478 15.7952C7.44644 15.8267 7.36573 15.8424 7.28266 15.8424H5.7944C5.60329 15.8424 5.44395 15.7776 5.31638 15.648C5.18881 15.5184 5.12502 15.3597 5.12502 15.1719ZM14.9921 6.83912L14.5295 6.36493L14.0631 5.90336L14.9921 6.83912Z" fill="#1C1C1C"/>
</svg>
