<svg width="390" height="44" viewBox="0 0 390 44" fill="none" xmlns="http://www.w3.org/2000/svg">
<rect width="390" height="44" fill="white"/>
<path d="M37.1509 16.248C39.6997 16.248 41.5601 18.0352 41.5601 21.6167V21.6313C41.5601 25.0957 39.8828 27.1831 37.1289 27.1831C35.0854 27.1831 33.5474 25.9966 33.2324 24.3633L33.2178 24.2974H35.4004L35.4224 24.356C35.686 24.9932 36.272 25.4253 37.1362 25.4253C38.6816 25.4253 39.3555 23.9531 39.436 22.0854C39.4434 21.9463 39.4507 21.7998 39.4434 21.6826H39.4067C38.9893 22.6641 37.9492 23.3818 36.521 23.3818C34.4775 23.3818 33.0786 21.939 33.0786 19.9541V19.9395C33.0786 17.7788 34.7998 16.248 37.1509 16.248ZM37.1582 21.7485C38.2642 21.7485 39.1138 20.9795 39.1138 19.9028V19.8955C39.1138 18.8262 38.2642 18.0059 37.1802 18.0059C36.1035 18.0059 35.2319 18.8188 35.2319 19.8662V19.8809C35.2319 20.9795 36.0596 21.7485 37.1582 21.7485ZM43.9697 20.291C43.3032 20.291 42.7832 19.771 42.7832 19.1045C42.7832 18.4453 43.3032 17.918 43.9697 17.918C44.6289 17.918 45.1562 18.4453 45.1562 19.1045C45.1562 19.771 44.6289 20.291 43.9697 20.291ZM43.9697 25.5059C43.3032 25.5059 42.7832 24.9785 42.7832 24.3193C42.7832 23.6528 43.3032 23.1328 43.9697 23.1328C44.6289 23.1328 45.1562 23.6528 45.1562 24.3193C45.1562 24.9785 44.6289 25.5059 43.9697 25.5059ZM51.5649 27V25.0591H46.3062V23.2134L50.5469 16.4312H53.667V23.2939H55.0586V25.0591H53.667V27H51.5649ZM48.2324 23.3525H51.6089V18.0278H51.5576L48.2324 23.2939V23.3525ZM58.8086 27V18.46H58.7646L56.0693 20.291V18.3281L58.8013 16.4312H60.9985V27H58.8086Z" fill="black"/>
<path fill-rule="evenodd" clip-rule="evenodd" d="M353.752 16.333H368.914C370.103 16.333 370.534 16.4568 370.969 16.6892C371.403 16.9216 371.744 17.2626 371.977 17.6972C372.209 18.1318 372.333 18.5628 372.333 19.7515V24.2478C372.333 25.4365 372.209 25.8676 371.977 26.3021C371.744 26.7367 371.403 27.0778 370.969 27.3102C370.534 27.5426 370.103 27.6663 368.914 27.6663H353.752C352.563 27.6663 352.132 27.5426 351.697 27.3102C351.263 27.0778 350.922 26.7367 350.689 26.3021C350.457 25.8676 350.333 25.4365 350.333 24.2478V19.7515C350.333 18.5628 350.457 18.1318 350.689 17.6972C350.922 17.2626 351.263 16.9216 351.697 16.6892C352.132 16.4568 352.563 16.333 353.752 16.333ZM353.752 17.333C352.819 17.333 352.498 17.3949 352.169 17.571C351.909 17.7102 351.71 17.9085 351.571 18.1688C351.395 18.498 351.333 18.8187 351.333 19.7515V24.2478C351.333 25.1806 351.395 25.5013 351.571 25.8305C351.71 26.0908 351.909 26.2891 352.169 26.4284C352.498 26.6044 352.819 26.6663 353.752 26.6663H368.914C369.847 26.6663 370.168 26.6044 370.497 26.4284C370.758 26.2891 370.956 26.0908 371.095 25.8305C371.271 25.5013 371.333 25.1806 371.333 24.2478V19.7515C371.333 18.8187 371.271 18.498 371.095 18.1688C370.956 17.9085 370.758 17.7102 370.497 17.571C370.168 17.3949 369.847 17.333 368.914 17.333H353.752ZM374.661 21.9997C374.661 22.8728 374.138 23.6609 373.333 23.9997V19.9997C374.138 20.3385 374.661 21.1265 374.661 21.9997Z" fill="black" fill-opacity="0.4"/>
<rect x="352.333" y="18.333" width="18" height="7.33333" rx="1.33333" fill="black"/>
<path fill-rule="evenodd" clip-rule="evenodd" d="M337.664 18.6079C339.88 18.608 342.011 19.4594 343.617 20.9862C343.738 21.1041 343.931 21.1026 344.05 20.9829L345.206 19.8162C345.267 19.7555 345.3 19.6733 345.3 19.5877C345.299 19.5021 345.265 19.4202 345.204 19.3602C340.989 15.3207 334.339 15.3207 330.124 19.3602C330.063 19.4202 330.028 19.502 330.027 19.5876C330.027 19.6732 330.06 19.7555 330.121 19.8162L331.277 20.9829C331.396 21.1028 331.589 21.1043 331.71 20.9862C333.316 19.4593 335.448 18.6079 337.664 18.6079ZM337.664 22.4036C338.881 22.4035 340.055 22.856 340.958 23.6732C341.08 23.7892 341.272 23.7867 341.391 23.6676L342.546 22.5009C342.607 22.4397 342.64 22.3567 342.64 22.2704C342.639 22.1842 342.603 22.1018 342.541 22.0419C339.793 19.4855 335.537 19.4855 332.789 22.0419C332.727 22.1018 332.691 22.1842 332.691 22.2705C332.69 22.3568 332.724 22.4398 332.785 22.5009L333.939 23.6676C334.058 23.7867 334.25 23.7892 334.372 23.6732C335.274 22.8566 336.447 22.4041 337.664 22.4036ZM339.883 25.1879C339.945 25.1273 339.979 25.0439 339.977 24.9574C339.975 24.8709 339.938 24.7889 339.874 24.7309C338.598 23.652 336.73 23.652 335.454 24.7309C335.39 24.7889 335.353 24.8708 335.351 24.9573C335.349 25.0438 335.383 25.1272 335.445 25.1879L337.442 27.2036C337.501 27.2628 337.581 27.2961 337.664 27.2961C337.747 27.2961 337.827 27.2628 337.886 27.2036L339.883 25.1879Z" fill="black"/>
<path fill-rule="evenodd" clip-rule="evenodd" d="M309 23.3332H310C310.552 23.3332 311 23.7809 311 24.3332V26.3332C311 26.8855 310.552 27.3332 310 27.3332H309C308.448 27.3332 308 26.8855 308 26.3332V24.3332C308 23.7809 308.448 23.3332 309 23.3332ZM313.667 21.3331H314.667C315.219 21.3331 315.667 21.7808 315.667 22.3331V26.3331C315.667 26.8854 315.219 27.3331 314.667 27.3331H313.667C313.115 27.3331 312.667 26.8854 312.667 26.3331V22.3331C312.667 21.7808 313.115 21.3331 313.667 21.3331ZM318.333 18.9999H319.333C319.885 18.9999 320.333 19.4476 320.333 19.9999V26.3332C320.333 26.8855 319.885 27.3332 319.333 27.3332H318.333C317.781 27.3332 317.333 26.8855 317.333 26.3332V19.9999C317.333 19.4476 317.781 18.9999 318.333 18.9999ZM323 16.6665H324C324.552 16.6665 325 17.1142 325 17.6665V26.3332C325 26.8855 324.552 27.3332 324 27.3332H323C322.448 27.3332 322 26.8855 322 26.3332V17.6665C322 17.1142 322.448 16.6665 323 16.6665Z" fill="black"/>
</svg>
